<svg width="1366" height="713" viewBox="0 0 1366 713" fill="none" xmlns="http://www.w3.org/2000/svg">
<g clip-path="url(#clip0_2_2)">
<path d="M0 0H1366V712.792H0V0Z" fill="url(#paint0_linear_2_2)"/>
<g clip-path="url(#clip1_2_2)">
<path d="M378.752 641.759H259.644V733.622H378.752V641.759Z" fill="#EBEBEB"/>
<path d="M289.482 732.969C289.618 732.969 289.727 712.5 289.727 687.241C289.727 661.982 289.618 641.504 289.482 641.504C289.346 641.504 289.246 661.983 289.246 687.241C289.246 712.499 289.355 732.969 289.482 732.969Z" fill="#E0E0E0"/>
<path d="M278.871 712.708H269.738V723.029H278.871V712.708Z" fill="#FAFAFA"/>
<path d="M342.41 641.995H328.879V661.594H342.41V641.995Z" fill="#E0E0E0"/>
<path d="M360.123 550.104H241.015V641.967H360.123V550.104Z" fill="#EBEBEB"/>
<path d="M270.863 641.319C270.99 641.319 271.099 620.85 271.099 595.591C271.099 570.332 270.99 549.863 270.863 549.863C270.736 549.863 270.627 570.332 270.627 595.591C270.627 620.85 270.727 641.319 270.863 641.319Z" fill="#E0E0E0"/>
<path d="M260.251 621.054H251.118V631.375H260.251V621.054Z" fill="#FAFAFA"/>
<path d="M323.791 550.34H310.26V569.939H323.791V550.34Z" fill="#E0E0E0"/>
<path d="M323.791 622.097H310.26V641.696H323.791V622.097Z" fill="#E0E0E0"/>
<path d="M344.977 476.479H249.205V550.34H344.977V476.479Z" fill="#F5F5F5"/>
<path d="M273.202 549.823C273.302 549.823 273.392 533.353 273.392 513.047C273.392 492.741 273.301 476.28 273.202 476.28C273.103 476.28 273.012 492.741 273.012 513.047C273.012 533.353 273.094 549.823 273.202 549.823Z" fill="#E0E0E0"/>
<path d="M264.668 533.525H257.322V541.823H264.668V533.525Z" fill="#FAFAFA"/>
<path d="M315.755 476.67H304.881V492.432H315.755V476.67Z" fill="#E0E0E0"/>
<path d="M315.755 534.36H304.881V550.122H315.755V534.36Z" fill="#E0E0E0"/>
<path d="M87.0451 528.873H-2.91394V598.253H87.0451V528.873Z" fill="#F5F5F5"/>
<path d="M19.6231 597.772C19.7231 597.772 19.7951 582.3 19.7951 563.227C19.7951 544.154 19.7221 528.691 19.6231 528.691C19.5241 528.691 19.4421 544.109 19.4421 563.227C19.4421 582.345 19.5241 597.772 19.6231 597.772Z" fill="#E0E0E0"/>
<path d="M11.6071 582.464H4.71411V590.264H11.6071V582.464Z" fill="#FAFAFA"/>
<path d="M59.6011 529.054H49.3801V543.855H59.6011V529.054Z" fill="#E0E0E0"/>
<path d="M59.6011 583.253H49.3801V598.054H59.6011V583.253Z" fill="#E0E0E0"/>
<path d="M79.0641 459.674H-10.8949V529.054H79.0641V459.674Z" fill="#EBEBEB"/>
<path d="M11.6411 528.564C11.7411 528.564 11.8221 513.146 11.8221 494.028C11.8221 474.91 11.7411 459.483 11.6411 459.483C11.5411 459.483 11.4601 474.901 11.4601 494.028C11.4601 513.155 11.5701 528.564 11.6411 528.564Z" fill="#E0E0E0"/>
<path d="M3.62609 513.265H-3.26691V521.065H3.62609V513.265Z" fill="#FAFAFA"/>
<path d="M51.6201 459.846H41.3991V474.647H51.6201V459.846Z" fill="#E0E0E0"/>
<path d="M51.6201 514.044H41.3991V528.845H51.6201V514.044Z" fill="#E0E0E0"/>
<path d="M56.8441 411.516H-7.52087V461.162H56.8441V411.516Z" fill="#EBEBEB"/>
<path d="M8.59512 460.817C8.66812 460.817 8.72214 449.752 8.72214 436.103C8.72214 422.454 8.66812 411.425 8.59512 411.425C8.52212 411.425 8.46814 422.49 8.46814 436.139C8.46814 449.788 8.52812 460.817 8.59512 460.817Z" fill="#E0E0E0"/>
<path d="M2.86411 449.87H-2.06989V455.448H2.86411V449.87Z" fill="#FAFAFA"/>
<path d="M37.2001 411.652H29.8901V422.245H37.2001V411.652Z" fill="#E0E0E0"/>
<path d="M37.2001 450.423H29.8901V461.016H37.2001V450.423Z" fill="#E0E0E0"/>
<path d="M70.6121 678.027H-33.0689V758H70.6121V678.027Z" fill="#EBEBEB"/>
<path d="M38.9871 678.227H27.2061V695.286H38.9871V678.227Z" fill="#E0E0E0"/>
<path d="M84.9411 598.262H-18.7399V678.235H84.9411V598.262Z" fill="#EBEBEB"/>
<path d="M7.22614 677.665C7.34414 677.665 7.43512 659.844 7.43512 637.86C7.43512 615.876 7.34414 598.046 7.22614 598.046C7.10814 598.046 7.02612 615.867 7.02612 637.86C7.02612 659.853 7.11714 677.665 7.22614 677.665Z" fill="#E0E0E0"/>
<path d="M53.3071 598.462H41.5261V615.521H53.3071V598.462Z" fill="#E0E0E0"/>
<path d="M53.3071 660.931H41.5261V677.99H53.3071V660.931Z" fill="#E0E0E0"/>
<path d="M307.112 564.243H212.628V637.124H307.112V564.243Z" fill="#ABCCF4"/>
<path opacity="0.3" d="M307.112 564.243H212.628V637.124H307.112V564.243Z" fill="black"/>
<path d="M236.299 636.608C236.381 636.608 236.453 620.365 236.453 600.331C236.453 580.297 236.38 564.054 236.299 564.054C236.218 564.054 236.145 580.297 236.145 600.331C236.145 620.365 236.218 636.608 236.299 636.608Z" fill="#263238"/>
<path d="M227.882 620.536H220.636V628.726H227.882V620.536Z" fill="#F5F5F5"/>
<path d="M278.29 564.434H267.561V579.988H278.29V564.434Z" fill="#263238"/>
<path d="M278.29 621.353H267.561V636.907H278.29V621.353Z" fill="#263238"/>
<path d="M213.444 564.243H217.117L227.157 564.288H293.394L303.425 564.234L293.394 564.189H227.157L217.117 564.234H213.689L213.444 564.243Z" fill="#263238"/>
<path d="M228.454 564.152H133.97V637.033H228.454V564.152Z" fill="#ABCCF4"/>
<path d="M157.641 636.517C157.723 636.517 157.795 620.274 157.795 600.24C157.795 580.206 157.722 563.963 157.641 563.963C157.56 563.963 157.487 580.197 157.487 600.24C157.487 620.283 157.587 636.517 157.641 636.517Z" fill="#263238"/>
<path d="M149.224 620.446H141.978V628.636H149.224V620.446Z" fill="#F5F5F5"/>
<path opacity="0.5" d="M199.632 564.343H188.903V579.897H199.632V564.343Z" fill="white"/>
<path opacity="0.5" d="M199.632 621.262H188.903V636.816H199.632V621.262Z" fill="white"/>
<path d="M134.795 564.153H138.468L148.499 564.198H214.732L224.772 564.153L214.732 564.099L181.611 564.054L148.499 564.099L138.468 564.153H134.795Z" fill="#263238"/>
<path d="M223.148 491.271H128.664V564.152H223.148V491.271Z" fill="#ABCCF4"/>
<path d="M152.335 563.636C152.426 563.636 152.489 547.393 152.489 527.359C152.489 507.325 152.425 491.082 152.335 491.082C152.245 491.082 152.181 507.316 152.181 527.359C152.181 547.402 152.254 563.636 152.335 563.636Z" fill="#263238"/>
<path d="M143.919 547.565H136.673V555.755H143.919V547.565Z" fill="#F5F5F5"/>
<path d="M194.326 491.462H183.597V507.016H194.326V491.462Z" fill="#263238"/>
<path d="M194.326 548.381H183.597V563.935H194.326V548.381Z" fill="#263238"/>
<path d="M129.472 491.235C129.55 491.249 129.63 491.249 129.708 491.235H143.176L176.288 491.28L209.409 491.235H222.886C222.964 491.249 223.044 491.249 223.122 491.235H219.449L209.409 491.181H143.176L133.145 491.235H129.472Z" fill="#263238"/>
<path d="M138.768 718.267V709.733H313.344C313.963 709.733 314.557 709.978 314.996 710.415C315.434 710.852 315.682 711.445 315.684 712.064V715.937C315.682 716.556 315.434 717.149 314.996 717.586C314.557 718.023 313.963 718.268 313.344 718.268H308.483V722.15C308.483 722.452 308.543 722.751 308.658 723.03C308.774 723.309 308.943 723.563 309.157 723.776C309.37 723.99 309.624 724.159 309.903 724.275C310.182 724.391 310.481 724.45 310.783 724.45H313.377C313.986 724.45 314.57 724.692 315.002 725.122C315.433 725.552 315.676 726.136 315.677 726.745V730.663C315.676 731.272 315.433 731.856 315.002 732.286C314.57 732.716 313.986 732.958 313.377 732.958H138.768V724.424H179.462V718.239L138.768 718.267ZM266.646 718.267H256.188V724.452H266.636L266.646 718.267ZM273.62 724.452H284.077V718.267H273.611L273.62 724.452ZM249.188 718.267H238.721V724.452H249.188V718.267ZM231.748 718.267H221.288V724.452H231.763L231.748 718.267ZM214.317 718.267H203.84V724.452H214.333L214.317 718.267ZM301.491 718.267H291.033V724.452H301.508L301.491 718.267ZM186.418 724.452H196.902V718.267H186.436L186.418 724.452Z" fill="#455A64"/>
<path d="M-1.95198 571.235C-2.2379 570.943 -2.46265 570.596 -2.61311 570.216C-2.76357 569.836 -2.83673 569.43 -2.82826 569.021C-2.81978 568.612 -2.72985 568.209 -2.56376 567.836C-2.39768 567.462 -2.15876 567.125 -1.86097 566.845L27.587 539.011C28.1754 538.459 28.9521 538.151 29.759 538.151C30.566 538.151 31.3426 538.459 31.931 539.011V539.011C32.2406 539.299 32.4896 539.645 32.6634 540.03C32.8373 540.415 32.9325 540.831 32.9435 541.254C32.9545 541.676 32.881 542.096 32.7274 542.49C32.5738 542.884 32.3432 543.243 32.049 543.546L20.304 555.898L26.417 561.784L29.6 559.254L51.811 584.694L63.683 573.276L77.994 615.367L75.155 672.504H42.234L44.534 604.604L22.45 573.152L22.278 565.67L15.929 559.17L2.24303 571.395C1.64952 571.924 0.874862 572.203 0.0806162 572.174C-0.71363 572.145 -1.46614 571.811 -2.01997 571.241L-1.95198 571.235Z" fill="#263238"/>
<path d="M86.8461 683.087C86.9731 683.087 87.0821 630.956 87.0821 566.664C87.0821 502.372 86.9731 450.223 86.8461 450.223C86.7191 450.223 86.61 502.344 86.61 566.664C86.61 630.984 86.7461 683.087 86.8461 683.087Z" fill="#263238"/>
<path d="M13.1571 668.404L-6.86795 612.764L0.659088 609.717V598.969L-54.0919 598.126C-55.3826 598.101 -56.6202 597.608 -57.5746 596.739C-58.5289 595.87 -59.1349 594.684 -59.2799 593.401L-67.3339 521.916C-67.5144 520.318 -68.2768 518.842 -69.4756 517.77C-70.6743 516.698 -72.2257 516.105 -73.8339 516.103V516.103C-74.716 516.102 -75.5891 516.28 -76.4008 516.625C-77.2124 516.971 -77.9457 517.477 -78.5566 518.113C-79.1675 518.75 -79.6433 519.503 -79.9555 520.328C-80.2676 521.153 -80.4096 522.033 -80.3729 522.914L-77.3079 596.575L-105.895 596.729L-106.865 610.161L-22.321 613.471L-0.272919 667.606L13.1571 668.404Z" fill="#455A64"/>
<path d="M0.560089 667.044L71.7361 667.606V672.349L42.2521 671.968L-4.70889 671.605L-118.566 655.535L-105.66 606.416H-28.5709C-27.2383 606.396 -25.921 606.701 -24.7327 607.305C-23.5445 607.909 -22.5211 608.792 -21.7509 609.88L0.560089 667.044Z" fill="#263238"/>
<path d="M34.67 461.633L86.37 626.633L86.007 672.533H69.614V626.923L27.224 462.077L-87.63 461.433L-109.596 633.143H-122.556L-95.829 462.643C-95.4084 460.413 -94.2223 458.399 -92.4754 456.95C-90.7285 455.501 -88.5305 454.708 -86.261 454.707H25.347C27.439 454.706 29.4757 455.379 31.1551 456.627C32.8344 457.874 34.067 459.63 34.67 461.633V461.633Z" fill="#455A64"/>
<path d="M95.697 725.541V681.464L86.0471 672.531L-4.646 671.361L-20.971 658.083C-24.0115 655.614 -27.7533 654.167 -31.664 653.947L-49.132 652.959C-49.132 652.959 -56.968 647.559 -64.55 642.212C-74.1525 635.408 -85.63 631.751 -97.399 631.746H-147.669C-149.495 631.746 -151.246 632.471 -152.537 633.762C-153.828 635.053 -154.553 636.804 -154.553 638.63V725.541H95.697Z" fill="#ABCCF4"/>
<path d="M96.5861 711.339H-154.535V725.832H96.5861V711.339Z" fill="#263238"/>
<path d="M83.5901 725.378C83.6808 731.519 81.9482 737.55 78.6115 742.706C75.2748 747.863 70.4839 751.914 64.8445 754.348C59.2052 756.782 52.9708 757.488 46.9298 756.379C40.8888 755.269 35.3126 752.393 30.9064 748.114C26.5002 743.835 23.4619 738.345 22.1758 732.339C20.8897 726.333 21.4136 720.081 23.6811 714.373C25.9486 708.664 29.858 703.757 34.9148 700.271C39.9716 696.784 45.9486 694.876 52.0901 694.787C60.3235 694.668 68.2673 697.823 74.1745 703.56C80.0816 709.297 83.4684 717.145 83.5901 725.378V725.378Z" fill="#263238"/>
<path d="M74.339 725.514C74.4043 730.548 72.7228 735.448 69.5807 739.382C66.4386 743.315 62.0303 746.037 57.1065 747.085C52.1827 748.133 47.0478 747.442 42.5763 745.13C38.1047 742.817 34.573 739.026 32.5825 734.402C30.5921 729.779 30.2659 724.608 31.6596 719.77C33.0534 714.933 36.0808 710.728 40.2264 707.872C44.3719 705.016 49.3793 703.685 54.3958 704.107C59.4123 704.528 64.1277 706.675 67.739 710.182C69.7939 712.178 71.4346 714.559 72.5672 717.19C73.6997 719.821 74.3019 722.65 74.339 725.514V725.514Z" fill="#FAFAFA"/>
<path d="M52.228 704.029C55.0918 703.983 57.9364 704.503 60.5988 705.559C63.2612 706.615 65.689 708.186 67.7431 710.182C69.7972 712.178 71.4372 714.56 72.5691 717.191C73.7009 719.822 74.3024 722.65 74.339 725.514L30.739 726.14C30.6934 723.276 31.2134 720.432 32.2693 717.769C33.3251 715.107 34.896 712.679 36.892 710.625C38.8879 708.571 41.2697 706.931 43.9007 705.799C46.5316 704.667 49.3601 704.066 52.224 704.029H52.228Z" fill="#E0E0E0"/>
<path d="M65.823 725.641C65.8551 728.267 65.1078 730.843 63.6758 733.044C62.2438 735.245 60.1913 736.972 57.7779 738.006C55.3644 739.041 52.6985 739.336 50.117 738.856C47.5355 738.375 45.1545 737.14 43.2751 735.306C41.3956 733.472 40.1021 731.123 39.5581 728.554C39.0141 725.985 39.244 723.312 40.2188 720.874C41.1935 718.436 42.8694 716.342 45.0344 714.856C47.1994 713.37 49.7564 712.56 52.382 712.527C54.1257 712.505 55.8566 712.827 57.4758 713.475C59.095 714.122 60.5708 715.082 61.819 716.3C63.0671 717.518 64.0632 718.969 64.7502 720.572C65.4372 722.175 65.8018 723.897 65.823 725.641V725.641Z" fill="#263238"/>
<path d="M11.9961 709.443C12.049 709.367 12.0917 709.285 12.1231 709.198C12.1961 709.008 12.2951 708.763 12.4231 708.454L12.9131 707.248C13.1311 706.776 13.3751 706.232 13.6481 705.625C15.2288 702.197 17.1977 698.963 19.5161 695.984C22.898 691.52 27.2125 687.846 32.1591 685.219C35.1211 683.773 38.2623 682.726 41.5001 682.108C44.969 681.394 48.5072 681.071 52.0481 681.147C55.588 681.197 59.1108 681.65 62.5481 682.498C65.7465 683.299 68.8305 684.503 71.7261 686.08C76.6725 688.71 81.0958 692.223 84.7771 696.446C87.2249 699.308 89.3538 702.428 91.1261 705.751C91.7611 706.93 92.2421 707.851 92.5411 708.472C92.6861 708.772 92.8131 709.007 92.9041 709.189C92.9385 709.273 92.9842 709.353 93.0401 709.425C93.0237 709.336 92.993 709.25 92.9491 709.171L92.6221 708.436C92.3501 707.783 91.8971 706.849 91.2891 705.652C89.5719 702.273 87.4721 699.102 85.0311 696.202C81.3534 691.912 76.9116 688.342 71.9311 685.673C69.0071 684.077 65.8926 682.858 62.6621 682.045C59.1886 681.187 55.6286 680.728 52.0511 680.676C48.4722 680.614 44.8977 680.955 41.3951 681.692C38.1208 682.325 34.9457 683.392 31.9541 684.866C26.9661 687.539 22.6297 691.28 19.2541 695.822C16.9458 698.836 15.0063 702.115 13.4771 705.59L12.7881 707.232C12.6161 707.713 12.4621 708.139 12.3441 708.456C12.2261 708.773 12.1441 709.018 12.0811 709.218C12.0441 709.289 12.0156 709.365 11.9961 709.443V709.443Z" fill="#263238"/>
<path d="M233.415 709.733H95.761V725.831H233.415V709.733Z" fill="#263238"/>
<path d="M99.488 716.563C99.488 717.356 99.7232 718.131 100.164 718.79C100.604 719.45 101.23 719.963 101.963 720.267C102.695 720.57 103.501 720.65 104.279 720.495C105.057 720.34 105.771 719.958 106.332 719.398C106.892 718.837 107.274 718.123 107.429 717.345C107.584 716.567 107.504 715.761 107.201 715.029C106.897 714.296 106.384 713.67 105.724 713.23C105.065 712.789 104.29 712.554 103.497 712.554C102.971 712.554 102.449 712.658 101.963 712.859C101.476 713.061 101.035 713.356 100.662 713.728C100.29 714.1 99.9947 714.542 99.7932 715.029C99.5917 715.515 99.488 716.037 99.488 716.563Z" fill="#455A64"/>
<path d="M109.057 453.434H97.566V681.691H109.057V453.434Z" fill="#455A64"/>
<path d="M-65.8459 694.697C-65.8459 694.824 -46.4739 694.933 -22.5849 694.933C1.30407 694.933 20.6761 694.824 20.6761 694.697C20.6761 694.57 1.31307 694.461 -22.5849 694.461C-46.4829 694.461 -65.8459 694.57 -65.8459 694.697Z" fill="#263238"/>
<path d="M110.29 448.201H86.837V458.667H110.29V448.201Z" fill="#263238"/>
<path d="M110.861 679.805H95.761V709.933H110.861V679.805Z" fill="#263238"/>
<path d="M225.307 637.061H130.823V709.942H225.307V637.061Z" fill="#ABCCF4"/>
<path opacity="0.3" d="M225.307 637.061H130.823V709.942H225.307V637.061Z" fill="black"/>
<path d="M154.494 709.425C154.576 709.425 154.648 693.182 154.648 673.148C154.648 653.114 154.575 636.871 154.494 636.871C154.413 636.871 154.34 653.114 154.34 673.148C154.34 693.182 154.413 709.425 154.494 709.425Z" fill="#263238"/>
<path d="M146.077 693.354H138.831V701.544H146.077V693.354Z" fill="#F5F5F5"/>
<path d="M196.485 637.251H185.756V652.805H196.485V637.251Z" fill="#263238"/>
<path d="M196.485 694.17H185.756V709.724H196.485V694.17Z" fill="#263238"/>
<path d="M131.648 637.061H135.321L145.361 637.106L178.446 637.251H211.567L221.598 637.206H225.271C225.193 637.198 225.114 637.198 225.035 637.206H221.598L211.567 637.161L178.446 637.116L145.334 637.161L135.294 637.206H131.857C131.793 637.15 131.723 637.102 131.648 637.061V637.061Z" fill="#263238"/>
<path d="M324.417 637.061H229.933V709.942H324.417V637.061Z" fill="#ABCCF4"/>
<path d="M253.594 709.425C253.685 709.425 253.748 693.182 253.748 673.148C253.748 653.114 253.685 636.871 253.594 636.871C253.503 636.871 253.449 653.114 253.449 673.148C253.449 693.182 253.512 709.425 253.594 709.425Z" fill="#263238"/>
<path d="M245.178 693.354H237.932V701.544H245.178V693.354Z" fill="#F5F5F5"/>
<path opacity="0.5" d="M295.585 637.251H284.856V652.805H295.585V637.251Z" fill="white"/>
<path opacity="0.5" d="M295.585 694.17H284.856V709.724H295.585V694.17Z" fill="white"/>
<path d="M230.749 637.061H234.422L244.453 637.106H310.686L320.726 637.061H324.399C324.318 637.054 324.236 637.054 324.154 637.061H320.726L310.686 637.016L277.565 636.971L244.453 637.016L234.422 637.061H230.994C230.913 637.053 230.83 637.053 230.749 637.061V637.061Z" fill="#263238"/>
<path d="M371.278 726.639C372.738 728.607 375.45 727.863 376.678 726.639C377.802 725.271 378.549 723.633 378.846 721.887C379.853 717.996 380.859 713.915 379.925 710.006C379.698 708.817 379.144 707.715 378.325 706.823C377.913 706.383 377.394 706.059 376.817 705.884C376.241 705.708 375.629 705.687 375.042 705.823C373.673 706.223 372.856 707.592 372.267 708.888C370.56 712.714 369.72 716.87 369.809 721.059C369.737 723.024 370.251 724.966 371.287 726.637" fill="#ABCCF4"/>
<g opacity="0.2">
<path opacity="0.2" d="M371.278 726.639C372.738 728.607 375.45 727.863 376.678 726.639C377.802 725.271 378.549 723.633 378.846 721.887C379.853 717.996 380.859 713.915 379.925 710.006C379.698 708.817 379.144 707.715 378.325 706.823C377.913 706.383 377.394 706.059 376.817 705.884C376.241 705.708 375.629 705.687 375.042 705.823C373.673 706.223 372.856 707.592 372.267 708.888C370.56 712.714 369.72 716.87 369.809 721.059C369.737 723.024 370.251 724.966 371.287 726.637" fill="black"/>
</g>
<path d="M367.505 729.614C368.203 728.654 368.654 727.538 368.82 726.363C368.986 725.188 368.862 723.991 368.457 722.875C367.64 720.649 366.225 718.69 364.367 717.216C362.231 715.422 359.767 714.061 357.112 713.207C356.084 712.824 354.986 712.669 353.892 712.754C353.347 712.8 352.821 712.979 352.361 713.275C351.901 713.572 351.52 713.976 351.253 714.454C350.537 715.896 351.307 717.61 352.16 718.989C353.597 721.444 355.225 723.782 357.03 725.981C358.364 727.855 360.182 729.332 362.29 730.253C364.449 731.015 366.661 730.853 367.732 729.346" fill="#ABCCF4"/>
<path d="M1365.41 452.843H1262.09V532.527H1365.41V452.843Z" fill="#F5F5F5"/>
<path d="M1339.53 531.976C1339.41 531.976 1339.33 514.206 1339.33 492.3C1339.33 470.394 1339.41 452.635 1339.53 452.635C1339.64 452.635 1339.73 470.343 1339.73 492.3C1339.73 514.257 1339.64 531.976 1339.53 531.976Z" fill="#E0E0E0"/>
<path d="M1356.65 514.393H1348.73V523.351H1356.65V514.393Z" fill="#FAFAFA"/>
<path d="M1305.35 453.052H1293.61V470.051H1305.35V453.052Z" fill="#E0E0E0"/>
<path d="M1305.35 515.299H1293.61V532.298H1305.35V515.299Z" fill="#E0E0E0"/>
<path d="M1374.58 373.367H1271.26V453.051H1374.58V373.367Z" fill="#EBEBEB"/>
<path d="M1348.69 452.49C1348.58 452.49 1348.48 434.782 1348.48 412.825C1348.48 390.868 1348.58 373.149 1348.69 373.149C1348.81 373.149 1348.9 390.857 1348.9 412.825C1348.9 434.793 1348.78 452.49 1348.69 452.49Z" fill="#E0E0E0"/>
<path d="M1365.82 434.917H1357.9V443.875H1365.82V434.917Z" fill="#FAFAFA"/>
<path d="M1314.52 373.565H1302.78V390.564H1314.52V373.565Z" fill="#E0E0E0"/>
<path d="M1314.52 435.813H1302.78V452.812H1314.52V435.813Z" fill="#E0E0E0"/>
<path d="M1370.7 318.057H1296.78V375.076H1370.7V318.057Z" fill="#EBEBEB"/>
<path d="M1352.19 374.68C1352.11 374.68 1352.05 361.972 1352.05 346.296C1352.05 330.62 1352.11 317.953 1352.19 317.953C1352.28 317.953 1352.34 330.661 1352.34 346.337C1352.34 362.013 1352.27 374.68 1352.19 374.68Z" fill="#E0E0E0"/>
<path d="M1364.44 362.107H1358.78V368.513H1364.44V362.107Z" fill="#FAFAFA"/>
<path d="M1327.74 318.213H1319.34V330.379H1327.74V318.213Z" fill="#E0E0E0"/>
<path d="M1327.74 362.743H1319.34V374.909H1327.74V362.743Z" fill="#E0E0E0"/>
<path d="M1400.04 624.149H1280.97V716H1400.04V624.149Z" fill="#EBEBEB"/>
<path d="M1330.82 624.378H1317.29V643.971H1330.82V624.378Z" fill="#E0E0E0"/>
<path d="M1330.82 696.126H1317.29V715.719H1330.82V696.126Z" fill="#E0E0E0"/>
<path d="M1383.59 532.538H1264.51V624.389H1383.59V532.538Z" fill="#EBEBEB"/>
<path d="M1353.77 623.732C1353.63 623.732 1353.53 603.264 1353.53 578.015C1353.53 552.766 1353.63 532.288 1353.77 532.288C1353.91 532.288 1353.99 552.756 1353.99 578.015C1353.99 603.274 1353.89 623.732 1353.77 623.732Z" fill="#E0E0E0"/>
<path d="M1373.49 603.473H1364.37V613.796H1373.49V603.473Z" fill="#FAFAFA"/>
<path d="M1314.37 532.767H1300.84V552.36H1314.37V532.767Z" fill="#E0E0E0"/>
<path d="M1314.37 604.515H1300.84V624.108H1314.37V604.515Z" fill="#E0E0E0"/>
<path d="M1009.78 561.684H878.824V639.092H1009.78V561.684Z" fill="#ABCCF4"/>
<path opacity="0.4" d="M1009.78 561.684H878.824V639.092H1009.78V561.684Z" fill="white"/>
<path opacity="0.2" d="M934.971 561.684H878.824V639.092H934.971V561.684Z" fill="white"/>
<path d="M891.701 565.941H882.385V578.109H891.701V565.941Z" fill="#263238"/>
<path d="M903.356 565.941H894.04V578.109H903.356V565.941Z" fill="#263238"/>
<path d="M889.573 572.144L887.037 568.609L884.501 572.144H886.101V575.455H887.967V572.144H889.573Z" fill="white"/>
<path d="M901.767 568.727H899.139L898.994 569.358H899.441L898.731 571.342L898.994 569.752H898.468L898.587 568.727H895.63C895.585 569.544 895.841 570.349 896.349 570.991C896.858 571.632 897.583 572.066 898.389 572.209V575.034C897.732 575.139 897.233 575.52 897.233 576.006H900.203C900.203 575.52 899.691 575.139 899.034 575.034V572.143C899.823 571.995 900.533 571.569 901.035 570.942C901.536 570.316 901.796 569.529 901.767 568.727V568.727Z" fill="white"/>
<path d="M1004.47 617.398H982.078V634.033H1004.47V617.398Z" fill="#263238"/>
<path d="M997.124 620.735H984.969V621.458H997.124V620.735Z" fill="#ABCCF4"/>
<path d="M991.04 623.232H984.969V623.955H991.04V623.232Z" fill="#ABCCF4"/>
<path d="M994.246 625.715H984.969V626.438H994.246V625.715Z" fill="#ABCCF4"/>
<path d="M1024.94 638.592H856V716H1024.94V638.592Z" fill="#ABCCF4"/>
<path opacity="0.2" d="M950.135 638.592H856V716H950.135V638.592Z" fill="white"/>
<path d="M906.891 638.592H890.86V643.73H906.891V638.592Z" fill="#263238"/>
<path d="M906.891 710.652H890.86V715.79H906.891V710.652Z" fill="#263238"/>
<path d="M965.114 642.863H955.798V655.031H965.114V642.863Z" fill="#263238"/>
<path d="M976.769 642.863H967.453V655.031H976.769V642.863Z" fill="#263238"/>
<path d="M962.986 649.052L960.45 645.517L957.914 649.052H959.514V652.363H961.38V649.052H962.986Z" fill="white"/>
<path d="M975.18 645.57H972.552L972.407 646.201H972.854L972.144 648.201L972.407 646.601H971.881L971.999 645.576H969.099C969.053 646.396 969.307 647.204 969.816 647.848C970.324 648.493 971.05 648.93 971.858 649.076V651.888C971.201 651.993 970.702 652.374 970.702 652.86H973.632C973.632 652.374 973.12 651.993 972.463 651.888V649.076C973.263 648.918 973.978 648.476 974.478 647.832C974.977 647.187 975.226 646.384 975.18 645.57V645.57Z" fill="white"/>
<path d="M883.897 690.285H861.506V706.92H883.897V690.285Z" fill="white"/>
<path d="M876.551 693.623H864.396V694.346H876.551V693.623Z" fill="#ABCCF4"/>
<path d="M870.467 696.119H864.396V696.842H870.467V696.119Z" fill="#ABCCF4"/>
<path d="M873.673 698.603H864.396V699.326H873.673V698.603Z" fill="#ABCCF4"/>
<path d="M1310.53 482.095H1126.67V716H1310.53V482.095Z" fill="#F6F6F6"/>
<path opacity="0.3" d="M1310.53 482.095H1126.67V716H1310.53V482.095Z" fill="#DCDCDC"/>
<path d="M1227.57 490.084H1204.34V507.35H1227.57V490.084Z" fill="white"/>
<path d="M1219.95 493.54H1207.34V494.289H1219.95V493.54Z" fill="#ABCCF4"/>
<path d="M1213.64 496.129H1207.34V496.878H1213.64V496.129Z" fill="#ABCCF4"/>
<path d="M1216.96 498.717H1207.34V499.466H1216.96V498.717Z" fill="#ABCCF4"/>
<path d="M1155.95 688.34H1132.72V705.606H1155.95V688.34Z" fill="white"/>
<path d="M1148.33 691.796H1135.71V692.545H1148.33V691.796Z" fill="#ABCCF4"/>
<path d="M1142.02 694.385H1135.71V695.134H1142.02V694.385Z" fill="#ABCCF4"/>
<path d="M1145.33 696.973H1135.71V697.722H1145.33V696.973Z" fill="#ABCCF4"/>
<path d="M1305.45 490.084H1295.8V502.712H1305.45V490.084Z" fill="#263238"/>
<path d="M1305.45 505.261H1295.8V517.889H1305.45V505.261Z" fill="#263238"/>
<path d="M1303.25 496.509L1300.62 492.843L1297.99 496.509H1299.66V499.939H1301.59V496.509H1303.25Z" fill="white"/>
<path d="M1303.82 508.073H1300.98L1300.83 508.73H1301.29L1300.56 510.793L1300.83 509.137H1300.29L1300.41 508.073H1297.39C1297.35 508.922 1297.61 509.759 1298.14 510.427C1298.67 511.094 1299.42 511.547 1300.26 511.7V514.617C1299.57 514.722 1299.06 515.129 1299.06 515.629H1302.09C1302.09 515.129 1301.56 514.722 1300.88 514.617V511.703C1301.73 511.565 1302.5 511.118 1303.04 510.448C1303.58 509.779 1303.86 508.933 1303.82 508.073V508.073Z" fill="white"/>
<path opacity="0.2" d="M1235.76 482.095H1126.67V716H1235.76V482.095Z" fill="white"/>
<path d="M1310.52 595.677H1277.22V482.095H1273.87V595.677H1179.95V482.095H1176.59V595.677H1126.67V599.041H1176.59V716H1179.95V599.041H1273.87V716H1277.22V599.041H1310.52V595.677Z" fill="#ABCCF4"/>
<path d="M1310.52 595.677H1277.22V482.095H1273.87V595.677H1179.95V482.095H1176.59V595.677H1126.67V599.041H1176.59V716H1179.95V599.041H1273.87V716H1277.22V599.041H1310.52V595.677Z" fill="#ABCCF4"/>
<path opacity="0.2" d="M1310.52 595.677H1277.22V482.095H1273.87V595.677H1179.95V482.095H1176.59V595.677H1126.67V599.041H1176.59V716H1179.95V599.041H1273.87V716H1277.22V599.041H1310.52V595.677Z" fill="black"/>
<path opacity="0.2" d="M1310.53 595.677V599.041H1277.22V716H1273.85V599.041H1235.76V595.677H1273.85V482.095H1277.22V595.677H1310.53Z" fill="black"/>
<path d="M501.544 599.047H402.298V657.712H501.544V599.047Z" fill="#ABCCF4"/>
<path opacity="0.4" d="M501.544 599.047H402.298V657.712H501.544V599.047Z" fill="white"/>
<path opacity="0.2" d="M444.851 599.047H402.298V657.712H444.851V599.047Z" fill="white"/>
<path d="M412.058 602.274H404.997V611.496H412.058V602.274Z" fill="#263238"/>
<path d="M420.891 602.274H413.83V611.496H420.891V602.274Z" fill="#263238"/>
<path d="M410.444 606.974L408.522 604.295L406.6 606.974H407.815V609.484H409.229V606.974H410.444Z" fill="white"/>
<path d="M419.686 604.385H417.694L417.584 604.863H417.923L417.385 606.363L417.585 605.163H417.185L417.275 604.386H415.035C415.001 605.005 415.195 605.616 415.58 606.102C415.966 606.588 416.515 606.916 417.126 607.025V609.166C416.626 609.246 416.25 609.534 416.25 609.903H418.501C418.501 609.535 418.113 609.246 417.615 609.166V606.975C418.213 606.863 418.752 606.54 419.132 606.065C419.512 605.589 419.709 604.993 419.686 604.385V604.385Z" fill="white"/>
<path d="M497.521 641.271H480.552V653.878H497.521V641.271Z" fill="#263238"/>
<path d="M491.955 643.8H482.743V644.348H491.955V643.8Z" fill="#ABCCF4"/>
<path d="M487.344 645.693H482.743V646.241H487.344V645.693Z" fill="#ABCCF4"/>
<path d="M489.774 647.575H482.743V648.123H489.774V647.575Z" fill="#ABCCF4"/>
<path d="M513.036 657.334H385V715.999H513.036V657.334Z" fill="#ABCCF4"/>
<path opacity="0.2" d="M456.343 657.334H385V715.999H456.343V657.334Z" fill="white"/>
<path d="M423.569 657.334H411.42V661.228H423.569V657.334Z" fill="#263238"/>
<path d="M423.569 711.946H411.42V715.84H423.569V711.946Z" fill="#263238"/>
<path d="M467.696 660.571H460.635V669.793H467.696V660.571Z" fill="#263238"/>
<path d="M476.529 660.571H469.468V669.793H476.529V660.571Z" fill="#263238"/>
<path d="M466.082 665.261L464.16 662.582L462.238 665.261H463.453V667.771H464.867V665.261H466.082Z" fill="white"/>
<path d="M475.324 662.622H473.332L473.222 663.1H473.561L473.023 664.614L473.223 663.399H472.823L472.913 662.622H470.713C470.679 663.243 470.872 663.854 471.257 664.342C471.643 664.83 472.193 665.16 472.804 665.271V667.402C472.304 667.482 471.928 667.77 471.928 668.139H474.149C474.149 667.771 473.761 667.482 473.263 667.402V665.271C473.868 665.152 474.41 664.818 474.789 664.332C475.167 663.845 475.357 663.238 475.324 662.622V662.622Z" fill="white"/>
<path d="M406.142 696.511H389.173V709.118H406.142V696.511Z" fill="white"/>
<path d="M400.575 699.04H391.363V699.588H400.575V699.04Z" fill="#ABCCF4"/>
<path d="M395.964 700.932H391.363V701.48H395.964V700.932Z" fill="#ABCCF4"/>
<path d="M398.394 702.815H391.363V703.363H398.394V702.815Z" fill="#ABCCF4"/>
<g clip-path="url(#clip2_2_2)">
<path d="M679.324 505.655L657.733 507.579L649.075 502.692C649.075 502.692 621.307 487.223 614.092 482.336C611.906 480.836 609.861 477.581 608.101 473.754C606.626 470.473 605.356 467.103 604.301 463.664C603.809 462.123 603.372 460.647 603.001 459.291C602.17 456.372 601.656 454.186 601.514 453.591C601.52 453.544 601.52 453.496 601.514 453.449H601.569L608.413 451.263L614.13 449.448C614.13 449.448 614.392 450.804 614.841 452.87L615.235 454.696C615.355 455.221 615.476 455.789 615.607 456.358C617.05 462.721 619.269 471.401 620.876 472.822C623.467 475.107 656.045 497.31 657.203 497.889C658.361 498.468 668.736 497.889 668.736 497.889L679.324 505.655Z" fill="#F3B5AC"/>
<path d="M601.335 422.8C611.283 422.647 617.613 453.476 617.613 453.476L604.494 460.035C600.767 453.583 598.824 446.256 598.864 438.805C599.17 426.976 601.335 422.8 601.335 422.8Z" fill="#086BB5"/>
<path opacity="0.5" d="M601.335 422.8C611.283 422.647 617.613 453.476 617.613 453.476L604.494 460.035C600.767 453.583 598.824 446.256 598.864 438.805C599.17 426.976 601.335 422.8 601.335 422.8Z" fill="white"/>
<path d="M619.067 454.077L615.525 456.377L610.901 459.377L604.254 463.677L603.062 464.453L601.619 460.053L602.953 459.331L603.828 458.85L609.906 455.538L614.76 452.881L617.187 451.558L617.613 451.328L619.067 454.077Z" fill="#086BB5"/>
<path opacity="0.2" d="M611.491 464.441C611.511 467.859 610.292 471.168 608.058 473.755C606.583 470.474 605.313 467.104 604.258 463.665L603.066 464.441L601.623 460.068L602.957 459.346C602.126 456.427 601.612 454.241 601.47 453.646V453.471L603.036 441.451C605.102 444.555 606.866 447.85 608.305 451.29C608.873 452.635 609.398 454.067 609.879 455.554C610.046 456.064 610.199 456.589 610.338 457.128C610.546 457.871 610.721 458.628 610.874 459.38C611.229 461.046 611.434 462.74 611.486 464.442L611.491 464.441Z" fill="black"/>
<path d="M599.848 705.593L608.998 706.566L610.714 686.834L601.564 685.861L599.848 705.593Z" fill="#F3B5AC"/>
<path d="M554.206 704.926H563.061L563.793 684.395H554.927L554.206 704.926Z" fill="#F3B5AC"/>
<path d="M564.296 703.899H553.532C553.356 703.902 553.186 703.964 553.049 704.075C552.913 704.186 552.817 704.339 552.778 704.511L551.029 712.404C550.992 712.572 550.989 712.746 551.02 712.915C551.05 713.084 551.114 713.246 551.208 713.39C551.301 713.534 551.423 713.659 551.565 713.756C551.707 713.853 551.867 713.921 552.035 713.956C552.129 713.972 552.225 713.972 552.319 713.956C555.806 713.956 558.343 713.694 562.719 713.694C565.419 713.694 573.553 713.967 577.27 713.967C580.987 713.967 581.479 710.294 579.948 709.955C573.115 708.468 567.923 706.402 565.736 704.489C565.345 704.122 564.832 703.912 564.296 703.899V703.899Z" fill="#263238"/>
<path d="M564.904 705.129C564.861 705.118 564.822 705.095 564.793 705.061C564.764 705.028 564.745 704.987 564.74 704.943C564.735 704.904 564.742 704.863 564.759 704.828C564.777 704.792 564.805 704.763 564.84 704.743C565.157 704.535 568.021 702.775 569.005 703.289C569.117 703.337 569.211 703.419 569.276 703.522C569.34 703.626 569.372 703.746 569.366 703.868C569.388 704.072 569.36 704.278 569.283 704.469C569.207 704.659 569.086 704.828 568.929 704.961C568.43 705.306 567.828 705.468 567.224 705.42C566.442 705.408 565.665 705.308 564.906 705.12L564.904 705.129ZM565.504 704.829C566.539 705.18 567.67 705.122 568.663 704.665C568.767 704.571 568.846 704.453 568.896 704.322C568.945 704.191 568.963 704.05 568.947 703.911C568.947 703.747 568.87 703.67 568.805 703.67C568.726 703.625 568.634 703.605 568.543 703.615C567.461 703.82 566.429 704.232 565.504 704.828V704.829Z" fill="#086BB5"/>
<path d="M564.81 705.199C564.778 705.177 564.752 705.147 564.734 705.112C564.717 705.077 564.708 705.038 564.71 704.999C564.71 704.879 564.94 702.332 565.967 701.499C566.086 701.391 566.226 701.311 566.379 701.264C566.532 701.217 566.694 701.204 566.852 701.226C567.011 701.225 567.165 701.279 567.288 701.379C567.412 701.478 567.497 701.618 567.53 701.773C567.705 702.713 565.93 704.659 565.03 705.162H564.93C564.894 705.184 564.852 705.196 564.81 705.195V705.199ZM566.231 701.744C565.595 702.538 565.214 703.506 565.138 704.521C566.056 703.832 567.182 702.335 567.073 701.777C567.073 701.722 567.073 701.569 566.767 701.569H566.667C566.522 701.581 566.383 701.634 566.267 701.722L566.231 701.744Z" fill="#086BB5"/>
<path d="M609.96 703.625H599.192C599.017 703.625 598.847 703.685 598.711 703.794C598.574 703.903 598.478 704.055 598.438 704.225L596.689 712.118C596.618 712.457 596.684 712.811 596.872 713.101C597.06 713.392 597.356 713.597 597.695 713.67H597.995C601.471 713.604 604.008 713.397 608.395 713.397C611.084 713.397 619.218 713.681 622.935 713.681C626.652 713.681 627.144 709.997 625.624 709.658C618.791 708.171 613.599 706.116 611.412 704.192C611.014 703.831 610.497 703.629 609.96 703.625V703.625Z" fill="#263238"/>
<path d="M610.572 704.85C610.529 704.839 610.49 704.816 610.461 704.782C610.432 704.749 610.413 704.708 610.408 704.664C610.401 704.623 610.409 704.582 610.428 704.545C610.448 704.509 610.479 704.481 610.517 704.464C610.834 704.256 613.698 702.496 614.671 703.01C614.781 703.061 614.874 703.143 614.938 703.246C615.002 703.349 615.035 703.468 615.032 703.589C615.055 703.793 615.027 704 614.951 704.19C614.874 704.381 614.752 704.55 614.595 704.682C614.107 705.037 613.514 705.218 612.911 705.196C612.121 705.169 611.336 705.051 610.572 704.846V704.85ZM611.172 704.55C612.207 704.895 613.334 704.84 614.331 704.397C614.435 704.303 614.516 704.186 614.565 704.055C614.614 703.923 614.632 703.782 614.615 703.643C614.615 703.468 614.538 703.392 614.484 703.392C614.401 703.347 614.305 703.327 614.211 703.337C613.131 703.548 612.1 703.961 611.173 704.554L611.172 704.55Z" fill="#086BB5"/>
<path d="M610.517 704.893C610.485 704.873 610.458 704.846 610.439 704.814C610.42 704.781 610.41 704.745 610.408 704.707C610.408 704.576 610.638 702.029 611.665 701.198C611.784 701.091 611.924 701.01 612.077 700.963C612.23 700.916 612.392 700.903 612.55 700.925C612.71 700.925 612.866 700.98 612.989 701.082C613.113 701.184 613.198 701.326 613.228 701.483C613.414 702.412 611.643 704.369 610.728 704.861H610.628C610.595 704.882 610.558 704.893 610.519 704.894L610.517 704.893ZM611.938 701.438C611.297 702.23 610.916 703.199 610.845 704.215C611.752 703.526 612.878 702.029 612.769 701.482C612.769 701.416 612.769 701.263 612.463 701.263H612.363C612.206 701.274 612.056 701.335 611.937 701.438H611.938Z" fill="#086BB5"/>
<path opacity="0.2" d="M601.568 685.861L610.718 686.834L609.818 697.012L600.668 696.039L601.568 685.861Z" fill="black"/>
<path opacity="0.2" d="M554.928 684.407H563.794L563.411 695H554.545L554.928 684.407Z" fill="black"/>
<path d="M558.579 504.289H605.587C610.058 528.722 624.062 615.163 614.016 692.18L598.088 690.201C598.088 690.201 599.564 587.953 585.505 550.16C583.887 570.384 581.963 591.91 580.305 603.367C576.249 631.55 567.493 693.175 567.493 693.175H551.276C551.276 693.175 554.556 634.207 556.119 606.494C557.792 576.408 558.524 510.469 558.579 504.289Z" fill="#086BB5"/>
<path opacity="0.2" d="M585.581 550.16C587.898 556.787 589.657 563.596 590.839 570.516C592.151 552.511 586.892 533.423 586.892 533.423L585.581 550.16Z" fill="black"/>
<path d="M615.884 695.885L596.173 692.955L596.773 687.5L617.273 690.189L615.884 695.885Z" fill="#086BB5"/>
<path opacity="0.6" d="M615.884 695.885L596.173 692.955L596.773 687.5L617.273 690.189L615.884 695.885Z" fill="white"/>
<path d="M569.434 693.294H550.314V687.577L570.156 687.205L569.434 693.294Z" fill="#086BB5"/>
<path opacity="0.6" d="M569.434 693.294H550.314V687.577L570.156 687.205L569.434 693.294Z" fill="white"/>
<path d="M558.492 512.466L558.448 505.655L606.396 502.692L606.735 509.292L558.492 512.466Z" fill="#263238"/>
<path d="M570.626 503.928H568.461V513.909H570.626V503.928Z" fill="#086BB5"/>
<path d="M603.762 500.612L601.603 500.769L602.329 510.724L604.488 510.566L603.762 500.612Z" fill="#086BB5"/>
<path d="M606.353 502.692L558.453 506.234C558.453 502.034 558.344 497.357 558.027 492.416C557.437 483.288 556.311 473.296 555.053 463.927C552.386 444.02 549.117 426.933 549.117 426.933C571.417 421.303 601.34 422.768 601.34 422.768C609.108 451.891 606.353 502.692 606.353 502.692Z" fill="#086BB5"/>
<path opacity="0.6" d="M606.353 502.692L558.453 506.234C558.453 502.034 558.344 497.357 558.027 492.416C557.437 483.288 556.311 473.296 555.053 463.927C552.386 444.02 549.117 426.933 549.117 426.933C571.417 421.303 601.34 422.768 601.34 422.768C609.108 451.891 606.353 502.692 606.353 502.692Z" fill="white"/>
<path d="M566.133 423.949C570.506 427.874 581.033 426.431 581.033 426.431C581.033 426.431 587.592 424.616 586.248 422.55C582.356 421.916 580.476 420.101 579.689 417.773C579.257 416.336 579.123 414.826 579.295 413.335C579.355 412.502 579.465 411.673 579.623 410.853L566.504 401.167C568.265 407.561 570.364 419.313 566.133 423.949Z" fill="#F3B5AC"/>
<path opacity="0.2" d="M569.577 407.321C570.091 415.17 576.541 417.335 579.7 417.772C579.268 416.335 579.134 414.825 579.306 413.334L569.577 407.321Z" fill="black"/>
<path d="M592.14 382.516C595.321 385.533 593.998 394.727 587.516 399.428C581.034 404.129 581.033 381.39 581.033 381.39C581.033 381.39 590.118 380.592 592.14 382.516Z" fill="#263238"/>
<path d="M568.691 409.136C570.05 411.149 572.032 412.66 574.333 413.437C576.634 414.214 579.126 414.213 581.427 413.436C584.418 412.488 586.936 410.436 588.467 407.697C588.683 407.317 588.88 406.927 589.057 406.527C592.249 399.104 593.233 385.986 585.373 381.11C582.674 379.419 579.415 378.867 576.31 379.576C573.205 380.286 570.508 382.198 568.811 384.893C567.809 386.493 567.192 388.305 567.011 390.184C566.046 398.881 565.062 403.976 568.691 409.136Z" fill="#F3B5AC"/>
<path d="M579.733 394.825C579.569 395.514 579.886 396.159 580.356 396.235C580.826 396.311 581.285 395.798 581.449 395.142C581.613 394.486 581.285 393.808 580.837 393.732C580.389 393.656 579.864 394.114 579.733 394.825Z" fill="#263238"/>
<path d="M587.702 396.181C587.538 396.87 587.866 397.526 588.314 397.602C588.762 397.678 589.254 397.165 589.407 396.509C589.56 395.853 589.243 395.164 588.784 395.088C588.325 395.012 587.822 395.514 587.702 396.181Z" fill="#263238"/>
<path d="M585.111 396.093C585.584 398.377 586.372 400.584 587.45 402.652C586.906 402.917 586.311 403.06 585.706 403.069C585.101 403.079 584.502 402.955 583.95 402.707L585.111 396.093Z" fill="#EF9593"/>
<path d="M577.699 391.816C577.773 391.838 577.852 391.841 577.928 391.826C578.004 391.811 578.076 391.778 578.136 391.729C578.509 391.357 578.965 391.077 579.467 390.914C579.968 390.751 580.501 390.708 581.022 390.789C581.129 390.815 581.242 390.797 581.335 390.739C581.429 390.682 581.496 390.59 581.522 390.483C581.545 390.376 581.526 390.265 581.469 390.172C581.412 390.079 581.321 390.011 581.216 389.983V389.983C580.563 389.863 579.89 389.899 579.253 390.089C578.617 390.279 578.034 390.617 577.554 391.076C577.478 391.155 577.435 391.261 577.435 391.371C577.435 391.481 577.478 391.587 577.554 391.666C577.591 391.726 577.639 391.778 577.696 391.819L577.699 391.816Z" fill="#263238"/>
<path d="M582.181 406.205C581.147 406.188 580.132 405.921 579.224 405.426C578.316 404.931 577.541 404.223 576.966 403.363C576.934 403.314 576.923 403.254 576.936 403.196C576.948 403.139 576.983 403.089 577.032 403.057C577.081 403.025 577.141 403.014 577.199 403.027C577.256 403.039 577.306 403.074 577.338 403.123V403.123C577.888 403.906 578.614 404.55 579.456 405.003C580.299 405.457 581.235 405.708 582.192 405.736C582.248 405.736 582.302 405.757 582.343 405.796C582.384 405.835 582.408 405.888 582.411 405.944V405.944C582.408 405.998 582.386 406.05 582.347 406.088C582.309 406.127 582.257 406.149 582.203 406.152L582.181 406.205Z" fill="#263238"/>
<path d="M591.594 394.016C591.667 394.059 591.75 394.082 591.834 394.082C591.94 394.05 592.029 393.979 592.085 393.884C592.141 393.789 592.158 393.676 592.134 393.568V393.568C591.964 392.923 591.641 392.328 591.192 391.835C590.743 391.343 590.181 390.966 589.554 390.737C589.45 390.706 589.337 390.717 589.241 390.768C589.145 390.819 589.073 390.906 589.04 391.01V391.01C589.009 391.116 589.02 391.23 589.07 391.328C589.121 391.426 589.208 391.5 589.313 391.535V391.535C589.803 391.731 590.24 392.038 590.589 392.433C590.938 392.828 591.19 393.299 591.325 393.809C591.353 393.861 591.392 393.907 591.439 393.943C591.486 393.978 591.54 394.004 591.598 394.017L591.594 394.016Z" fill="#263238"/>
<path d="M575.207 380.45V384.342C574.52 384.573 573.944 385.055 573.596 385.691C573.248 386.327 573.152 387.071 573.327 387.775C574.169 391.164 571.727 395.952 569.009 397.614C569.009 397.614 569.096 396.204 567.916 396.39C566.736 396.576 566.134 403.911 568.016 407.661C568.016 407.661 564.916 404.097 563.884 396.204C562.922 388.904 563.425 382.976 565.207 380.418L575.207 380.45Z" fill="#263238"/>
<path d="M562.023 396.607C562.647 398.728 564.085 400.516 566.023 401.581C568.603 402.969 570.538 400.805 570.396 398.039C570.221 395.568 568.691 391.808 565.826 391.589C562.961 391.37 561.28 393.994 562.023 396.607Z" fill="#F3B5AC"/>
<path d="M563.443 387.075C563.443 387.075 560.743 380.592 567.816 375.837C574.889 371.082 591.67 376.624 592.851 380.483C594.032 384.342 581.339 391.349 563.443 387.075Z" fill="#263238"/>
<path d="M567.784 419.915L578.484 425.775L579.949 417.775L587.449 422.651V432.873L579.512 428.139L573.937 436.491L562.93 424.392L567.784 419.915Z" fill="#086BB5"/>
<path d="M592.196 502.967L583.558 503.443C582.918 503.478 582.429 504.025 582.464 504.665L582.79 510.576C582.825 511.215 583.372 511.705 584.011 511.67L592.65 511.194C593.289 511.158 593.779 510.612 593.744 509.972L593.418 504.061C593.383 503.422 592.836 502.932 592.196 502.967Z" fill="white"/>
<path opacity="0.5" d="M567.784 419.915L578.484 425.775L579.949 417.775L587.449 422.651V432.873L579.512 428.139L573.937 436.491L562.93 424.392L567.784 419.915Z" fill="white"/>
<path opacity="0.2" d="M575.207 490.339C572.026 495.127 561.848 495.094 558.022 492.449C557.432 483.321 556.306 473.329 555.048 463.96L575.207 490.339Z" fill="black"/>
<path d="M558.448 453.476C558.448 453.476 560.711 468.213 562.93 471.088C565.149 473.963 611.03 499.052 611.03 499.052L626.893 497.904L634.185 506.267C634.185 506.267 613.053 509.547 610.746 508.913C609.338 508.523 607.972 507.996 606.668 507.339C606.668 507.339 558.568 488.394 554.522 484.064C550.476 479.734 545.875 457.51 545.875 457.51L558.448 453.476Z" fill="#F3B5AC"/>
<path d="M549.112 426.97C557.512 425.221 561.848 460.062 561.848 460.062L544.674 464.435C544.674 464.435 538.781 429.13 549.112 426.97Z" fill="#086BB5"/>
<path opacity="0.5" d="M549.112 426.97C557.512 425.221 561.848 460.062 561.848 460.062L544.674 464.435C544.674 464.435 538.781 429.13 549.112 426.97Z" fill="white"/>
<path d="M543.667 463.599L562.929 458.986V462.298L544.529 467.633L543.667 463.599Z" fill="#086BB5"/>
<path d="M609.632 681.15V531.292C609.633 524.804 607.643 518.472 603.932 513.15L598.7 505.656H691.733L696.969 513.156C700.68 518.476 702.669 524.806 702.669 531.292V679.728" stroke="#263238" stroke-width="6" stroke-linecap="round" stroke-linejoin="round"/>
<path d="M807.34 714C812.659 714 816.971 709.688 816.971 704.369C816.971 699.05 812.659 694.738 807.34 694.738C802.021 694.738 797.709 699.05 797.709 704.369C797.709 709.688 802.021 714 807.34 714Z" fill="#263238"/>
<path opacity="0.4" d="M812.161 704.369C812.161 703.256 811.775 702.178 811.07 701.318C810.364 700.458 809.382 699.869 808.291 699.651C807.2 699.434 806.067 699.601 805.086 700.125C804.104 700.649 803.335 701.497 802.908 702.525C802.482 703.553 802.425 704.696 802.747 705.761C803.069 706.826 803.75 707.747 804.675 708.366C805.599 708.984 806.71 709.264 807.817 709.156C808.925 709.048 809.96 708.56 810.748 707.774C811.652 706.871 812.16 705.646 812.161 704.369V704.369Z" fill="white"/>
<path d="M806.181 706.512C805.43 706.511 804.697 706.28 804.081 705.85C803.465 705.42 802.996 704.812 802.737 704.107L797.064 688.561H809.844V702.849C809.844 703.82 809.458 704.752 808.771 705.438C808.085 706.125 807.153 706.511 806.182 706.511L806.181 706.512Z" fill="#263238"/>
<path opacity="0.2" d="M806.181 706.512C805.43 706.511 804.697 706.28 804.081 705.85C803.465 705.42 802.996 704.812 802.737 704.107L797.064 688.561H809.844V702.849C809.844 703.82 809.458 704.752 808.771 705.438C808.085 706.125 807.153 706.511 806.182 706.511L806.181 706.512Z" fill="white"/>
<path d="M700.205 714C705.524 714 709.836 709.688 709.836 704.369C709.836 699.05 705.524 694.738 700.205 694.738C694.886 694.738 690.574 699.05 690.574 704.369C690.574 709.688 694.886 714 700.205 714Z" fill="#263238"/>
<path opacity="0.4" d="M705.026 704.369C705.026 703.256 704.64 702.178 703.935 701.318C703.229 700.458 702.247 699.869 701.156 699.651C700.065 699.434 698.932 699.601 697.951 700.125C696.969 700.649 696.2 701.497 695.773 702.525C695.347 703.553 695.29 704.696 695.612 705.761C695.934 706.826 696.615 707.747 697.54 708.366C698.464 708.984 699.575 709.264 700.682 709.156C701.79 709.048 702.825 708.56 703.613 707.774C704.517 706.871 705.025 705.646 705.026 704.369V704.369Z" fill="white"/>
<path d="M699.046 706.512C698.295 706.511 697.562 706.28 696.946 705.85C696.33 705.42 695.861 704.812 695.602 704.107L689.929 688.561H702.709V702.849C702.709 703.33 702.614 703.806 702.43 704.251C702.246 704.695 701.977 705.099 701.636 705.439C701.296 705.78 700.892 706.049 700.448 706.233C700.003 706.417 699.527 706.512 699.046 706.512V706.512Z" fill="#263238"/>
<path opacity="0.2" d="M699.046 706.512C698.295 706.511 697.562 706.28 696.946 705.85C696.33 705.42 695.861 704.812 695.602 704.107L689.929 688.561H702.709V702.849C702.709 703.33 702.614 703.806 702.43 704.251C702.246 704.695 701.977 705.099 701.636 705.439C701.296 705.78 700.892 706.049 700.448 706.233C700.003 706.417 699.527 706.512 699.046 706.512V706.512Z" fill="white"/>
<path d="M823.902 677.356V686.456C823.902 687.271 823.578 688.052 823.002 688.628C822.426 689.204 821.645 689.528 820.83 689.528H605.544C605.141 689.528 604.741 689.449 604.368 689.294C603.996 689.14 603.657 688.914 603.372 688.628C603.087 688.343 602.86 688.004 602.706 687.632C602.551 687.259 602.472 686.859 602.472 686.456V677.356H823.902Z" fill="#263238"/>
<path opacity="0.4" d="M823.902 677.356V686.456C823.902 687.271 823.578 688.052 823.002 688.628C822.426 689.204 821.645 689.528 820.83 689.528H605.544C605.141 689.528 604.741 689.449 604.368 689.294C603.996 689.14 603.657 688.914 603.372 688.628C603.087 688.343 602.86 688.004 602.706 687.632C602.551 687.259 602.472 686.859 602.472 686.456V677.356H823.902Z" fill="white"/>
<path opacity="0.2" d="M747.377 677.356V686.456C747.377 687.271 747.053 688.052 746.477 688.628C745.901 689.204 745.12 689.528 744.305 689.528H605.544C605.141 689.528 604.741 689.449 604.368 689.294C603.996 689.14 603.657 688.914 603.372 688.628C603.087 688.343 602.86 688.004 602.706 687.632C602.551 687.259 602.472 686.859 602.472 686.456V677.356H747.377Z" fill="white"/>
<path d="M729.721 714C735.04 714 739.352 709.688 739.352 704.369C739.352 699.05 735.04 694.738 729.721 694.738C724.402 694.738 720.09 699.05 720.09 704.369C720.09 709.688 724.402 714 729.721 714Z" fill="#263238"/>
<path opacity="0.6" d="M734.543 704.369C734.543 703.256 734.157 702.178 733.452 701.318C732.746 700.458 731.764 699.869 730.673 699.651C729.582 699.434 728.449 699.601 727.468 700.125C726.486 700.649 725.717 701.497 725.29 702.525C724.864 703.553 724.807 704.696 725.129 705.761C725.451 706.826 726.132 707.747 727.057 708.366C727.981 708.984 729.092 709.264 730.199 709.156C731.307 709.048 732.342 708.56 733.13 707.774C734.034 706.871 734.542 705.646 734.543 704.369V704.369Z" fill="white"/>
<path d="M728.563 706.512C727.812 706.511 727.079 706.28 726.463 705.85C725.847 705.42 725.378 704.812 725.119 704.107L719.446 688.561H732.226V702.849C732.226 703.33 732.131 703.806 731.947 704.251C731.763 704.695 731.494 705.099 731.153 705.439C730.813 705.78 730.409 706.049 729.965 706.233C729.52 706.417 729.044 706.512 728.563 706.512V706.512Z" fill="#263238"/>
<path opacity="0.4" d="M728.563 706.512C727.812 706.511 727.079 706.28 726.463 705.85C725.847 705.42 725.378 704.812 725.119 704.107L719.446 688.561H732.226V702.849C732.226 703.33 732.131 703.806 731.947 704.251C731.763 704.695 731.494 705.099 731.153 705.439C730.813 705.78 730.409 706.049 729.965 706.233C729.52 706.417 729.044 706.512 728.563 706.512V706.512Z" fill="white"/>
<path d="M622.587 714C627.906 714 632.218 709.688 632.218 704.369C632.218 699.05 627.906 694.738 622.587 694.738C617.268 694.738 612.956 699.05 612.956 704.369C612.956 709.688 617.268 714 622.587 714Z" fill="#263238"/>
<path opacity="0.6" d="M627.408 704.369C627.408 703.256 627.022 702.178 626.317 701.318C625.611 700.458 624.629 699.869 623.538 699.651C622.447 699.434 621.314 699.601 620.333 700.125C619.351 700.649 618.582 701.497 618.155 702.525C617.729 703.553 617.672 704.696 617.994 705.761C618.316 706.826 618.997 707.747 619.922 708.366C620.846 708.984 621.957 709.264 623.064 709.156C624.172 709.048 625.207 708.56 625.995 707.774C626.899 706.871 627.407 705.646 627.408 704.369V704.369Z" fill="white"/>
<path d="M621.428 706.512C620.677 706.511 619.944 706.28 619.328 705.85C618.712 705.42 618.243 704.812 617.984 704.107L612.311 688.561H625.091V702.849C625.091 703.33 624.996 703.806 624.812 704.251C624.628 704.695 624.359 705.099 624.018 705.439C623.678 705.78 623.274 706.049 622.83 706.233C622.385 706.417 621.909 706.512 621.428 706.512V706.512Z" fill="#263238"/>
<path opacity="0.4" d="M621.428 706.512C620.677 706.511 619.944 706.28 619.328 705.85C618.712 705.42 618.243 704.812 617.984 704.107L612.311 688.561H625.091V702.849C625.091 703.33 624.996 703.806 624.812 704.251C624.628 704.695 624.359 705.099 624.018 705.439C623.678 705.78 623.274 706.049 622.83 706.233C622.385 706.417 621.909 706.512 621.428 706.512V706.512Z" fill="white"/>
<path d="M731.077 606.789H629.135V677.356H731.077V606.789Z" fill="#086BB5"/>
<path opacity="0.4" d="M731.077 606.789H629.135V677.356H731.077V606.789Z" fill="white"/>
<path opacity="0.2" d="M676.438 606.789H629.135V677.356H676.438V606.789Z" fill="white"/>
<path opacity="0.2" d="M672.053 662.434H665.967C665.459 662.434 665.047 662.846 665.047 663.354V671.604C665.047 672.112 665.459 672.524 665.967 672.524H672.053C672.561 672.524 672.973 672.112 672.973 671.604V663.354C672.973 662.846 672.561 662.434 672.053 662.434Z" fill="black"/>
<path opacity="0.2" d="M661.383 662.434H655.297C654.789 662.434 654.377 662.846 654.377 663.354V671.604C654.377 672.112 654.789 672.524 655.297 672.524H661.383C661.891 672.524 662.303 672.112 662.303 671.604V663.354C662.303 662.846 661.891 662.434 661.383 662.434Z" fill="black"/>
<path opacity="0.4" d="M709.158 606.789H703.397V614.146H709.158V606.789Z" fill="black"/>
<path opacity="0.2" d="M724.912 636.918H685.228V646.145H724.912V636.918Z" fill="black"/>
<path opacity="0.2" d="M645.785 610.462H632.218V624.029H645.785V610.462Z" fill="black"/>
<path d="M741.484 536.222H639.542V606.789H741.484V536.222Z" fill="#086BB5"/>
<path opacity="0.4" d="M741.484 536.222H639.542V606.789H741.484V536.222Z" fill="black"/>
<path opacity="0.2" d="M686.845 536.222H639.542V606.789H686.845V536.222Z" fill="white"/>
<path opacity="0.2" d="M682.471 591.867H676.385C675.877 591.867 675.465 592.279 675.465 592.787V601.037C675.465 601.545 675.877 601.957 676.385 601.957H682.471C682.979 601.957 683.391 601.545 683.391 601.037V592.787C683.391 592.279 682.979 591.867 682.471 591.867Z" fill="black"/>
<path opacity="0.2" d="M671.802 591.867H665.716C665.208 591.867 664.796 592.279 664.796 592.787V601.037C664.796 601.545 665.208 601.957 665.716 601.957H671.802C672.31 601.957 672.722 601.545 672.722 601.037V592.787C672.722 592.279 672.31 591.867 671.802 591.867Z" fill="black"/>
<path opacity="0.4" d="M719.566 536.222H713.805V543.579H719.566V536.222Z" fill="black"/>
<path opacity="0.2" d="M735.319 566.351H695.635V575.578H735.319V566.351Z" fill="black"/>
<path opacity="0.2" d="M656.203 539.895H642.636V553.462H656.203V539.895Z" fill="black"/>
<path d="M803.885 536.222H701.943V606.789H803.885V536.222Z" fill="#086BB5"/>
<path opacity="0.4" d="M803.885 536.222H701.943V606.789H803.885V536.222Z" fill="white"/>
<path opacity="0.2" d="M749.246 536.222H701.943V606.789H749.246V536.222Z" fill="white"/>
<path opacity="0.2" d="M744.872 591.867H738.786C738.278 591.867 737.866 592.279 737.866 592.787V601.037C737.866 601.545 738.278 601.957 738.786 601.957H744.872C745.38 601.957 745.792 601.545 745.792 601.037V592.787C745.792 592.279 745.38 591.867 744.872 591.867Z" fill="black"/>
<path opacity="0.2" d="M734.202 591.867H728.116C727.608 591.867 727.196 592.279 727.196 592.787V601.037C727.196 601.545 727.608 601.957 728.116 601.957H734.202C734.71 601.957 735.122 601.545 735.122 601.037V592.787C735.122 592.279 734.71 591.867 734.202 591.867Z" fill="black"/>
<path opacity="0.4" d="M781.966 536.222H776.205V543.579H781.966V536.222Z" fill="black"/>
<path opacity="0.2" d="M797.72 566.351H758.036V575.578H797.72V566.351Z" fill="black"/>
<path opacity="0.2" d="M718.604 539.895H705.037V553.462H718.604V539.895Z" fill="black"/>
<path d="M768.629 465.655H666.687V536.222H768.629V465.655Z" fill="#086BB5"/>
<path opacity="0.2" d="M713.99 465.655H666.687V536.222H713.99V465.655Z" fill="white"/>
<path opacity="0.2" d="M709.605 521.3H703.519C703.011 521.3 702.599 521.712 702.599 522.22V530.47C702.599 530.978 703.011 531.39 703.519 531.39H709.605C710.113 531.39 710.525 530.978 710.525 530.47V522.22C710.525 521.712 710.113 521.3 709.605 521.3Z" fill="black"/>
<path opacity="0.2" d="M698.946 521.3H692.86C692.352 521.3 691.94 521.712 691.94 522.22V530.47C691.94 530.978 692.352 531.39 692.86 531.39H698.946C699.454 531.39 699.866 530.978 699.866 530.47V522.22C699.866 521.712 699.454 521.3 698.946 521.3Z" fill="black"/>
<path opacity="0.4" d="M746.71 465.655H740.949V473.012H746.71V465.655Z" fill="black"/>
<path opacity="0.2" d="M762.464 495.784H722.78V505.011H762.464V495.784Z" fill="black"/>
<path opacity="0.2" d="M683.337 469.328H669.77V482.895H683.337V469.328Z" fill="black"/>
<path d="M795.948 606.789H694.006V677.356H795.948V606.789Z" fill="#263238"/>
<path opacity="0.2" d="M795.948 606.789H694.006V677.356H795.948V606.789Z" fill="white"/>
<path opacity="0.2" d="M741.309 606.789H694.006V677.356H741.309V606.789Z" fill="white"/>
<path opacity="0.2" d="M736.924 662.434H730.838C730.33 662.434 729.918 662.846 729.918 663.354V671.604C729.918 672.112 730.33 672.524 730.838 672.524H736.924C737.432 672.524 737.844 672.112 737.844 671.604V663.354C737.844 662.846 737.432 662.434 736.924 662.434Z" fill="black"/>
<path opacity="0.2" d="M726.255 662.434H720.169C719.661 662.434 719.249 662.846 719.249 663.354V671.604C719.249 672.112 719.661 672.524 720.169 672.524H726.255C726.763 672.524 727.175 672.112 727.175 671.604V663.354C727.175 662.846 726.763 662.434 726.255 662.434Z" fill="black"/>
<path opacity="0.4" d="M774.029 606.789H768.268V614.146H774.029V606.789Z" fill="black"/>
<path opacity="0.2" d="M789.783 636.918H750.099V646.145H789.783V636.918Z" fill="black"/>
<path opacity="0.2" d="M710.656 610.462H697.089V624.029H710.656V610.462Z" fill="black"/>
</g>
</g>
</g>
<defs>
<linearGradient id="paint0_linear_2_2" x1="683" y1="0" x2="683" y2="712.792" gradientUnits="userSpaceOnUse">
<stop stop-color="#086BB5"/>
<stop offset="1" stop-color="#5799E8"/>
</linearGradient>
<clipPath id="clip0_2_2">
<rect width="1366" height="712.792" fill="white"/>
</clipPath>
<clipPath id="clip1_2_2">
<rect width="1366" height="472" fill="white" transform="translate(0 244)"/>
</clipPath>
<clipPath id="clip2_2_2">
<rect width="280.902" height="340" fill="white" transform="translate(543 374)"/>
</clipPath>
</defs>
</svg>
