<svg xmlns="http://www.w3.org/2000/svg" xmlns:xlink="http://www.w3.org/1999/xlink" width="1366" height="472" viewBox="0 0 1366 472">
  <defs>
    <linearGradient id="linear-gradient" x1="0.5" x2="0.5" y2="1" gradientUnits="objectBoundingBox">
      <stop offset="0" stop-color="#086bb5"/>
      <stop offset="1" stop-color="#5799e8"/>
    </linearGradient>
    <clipPath id="clip-path">
      <rect id="Rectángulo_2739" data-name="Rectángulo 2739" width="1366" height="472" transform="translate(3541 2339)" fill="url(#linear-gradient)"/>
    </clipPath>
    <clipPath id="clip-path-2">
      <rect id="Rectángulo_2738" data-name="Rectángulo 2738" width="1366" height="472" transform="translate(0 72)" fill="#fff"/>
    </clipPath>
  </defs>
  <g id="Banner_hero" data-name="Banner hero" transform="translate(-3541 -2339)" clip-path="url(#clip-path)">
    <g id="Grupo_6200" data-name="Grupo 6200" transform="translate(3541 2267)">
      <g id="Enmascarar_grupo_5" data-name="Enmascarar grupo 5" transform="translate(-11)" clip-path="url(#clip-path-2)">
        <g id="Logistics-pana" transform="translate(-197.452 239.425)">
          <g id="freepik--background-complete--inject-3" transform="translate(0)">
            <rect id="Rectángulo_2665" data-name="Rectángulo 2665" width="119.108" height="91.863" transform="translate(468.096 230.334)" fill="#ebebeb"/>
            <path id="Trazado_5130" data-name="Trazado 5130" d="M159.536,409.154c.136,0,.245-20.469.245-45.728s-.109-45.737-.245-45.737-.236,20.479-.236,45.737S159.409,409.154,159.536,409.154Z" transform="translate(338.398 -87.61)" fill="#e0e0e0"/>
            <rect id="Rectángulo_2666" data-name="Rectángulo 2666" width="9.133" height="10.321" transform="translate(478.19 301.283)" fill="#fafafa"/>
            <rect id="Rectángulo_2667" data-name="Rectángulo 2667" width="13.531" height="19.599" transform="translate(537.331 230.57)" fill="#e0e0e0"/>
            <rect id="Rectángulo_2668" data-name="Rectángulo 2668" width="13.531" height="19.599" transform="translate(537.331 302.317)" fill="#e0e0e0"/>
            <rect id="Rectángulo_2669" data-name="Rectángulo 2669" width="119.108" height="91.863" transform="translate(449.467 138.679)" fill="#ebebeb"/>
            <path id="Trazado_5131" data-name="Trazado 5131" d="M180.076,308.1c.127,0,.236-20.469.236-45.728s-.109-45.728-.236-45.728-.236,20.469-.236,45.728S179.94,308.1,180.076,308.1Z" transform="translate(299.239 -78.206)" fill="#e0e0e0"/>
            <rect id="Rectángulo_2670" data-name="Rectángulo 2670" width="9.133" height="10.321" transform="translate(459.57 209.629)" fill="#fafafa"/>
            <rect id="Rectángulo_2671" data-name="Rectángulo 2671" width="13.531" height="19.599" transform="translate(518.712 138.915)" fill="#e0e0e0"/>
            <rect id="Rectángulo_2672" data-name="Rectángulo 2672" width="13.531" height="19.599" transform="translate(518.712 210.672)" fill="#e0e0e0"/>
            <rect id="Rectángulo_2673" data-name="Rectángulo 2673" width="95.772" height="73.861" transform="translate(457.657 65.054)" fill="#f5f5f5"/>
            <path id="Trazado_5132" data-name="Trazado 5132" d="M177.5,209.053c.1,0,.19-16.47.19-36.776s-.091-36.767-.19-36.767-.19,16.461-.19,36.767S177.392,209.053,177.5,209.053Z" transform="translate(304.154 -70.655)" fill="#e0e0e0"/>
            <rect id="Rectángulo_2674" data-name="Rectángulo 2674" width="7.346" height="8.298" transform="translate(465.774 122.1)" fill="#fafafa"/>
            <rect id="Rectángulo_2675" data-name="Rectángulo 2675" width="10.874" height="15.762" transform="translate(513.333 65.245)" fill="#e0e0e0"/>
            <rect id="Rectángulo_2676" data-name="Rectángulo 2676" width="10.874" height="15.762" transform="translate(513.333 122.935)" fill="#e0e0e0"/>
            <rect id="Rectángulo_2677" data-name="Rectángulo 2677" width="89.959" height="69.38" transform="translate(30.147 116.332)" fill="#f5f5f5"/>
            <path id="Trazado_5133" data-name="Trazado 5133" d="M650.482,261.151c.1,0,.181-15.472.181-34.545s-.082-34.536-.181-34.536-.172,15.463-.172,34.536S650.382,261.151,650.482,261.151Z" transform="translate(-597.798 -75.919)" fill="#e0e0e0"/>
            <rect id="Rectángulo_2678" data-name="Rectángulo 2678" width="6.893" height="7.8" transform="translate(37.783 169.923)" fill="#fafafa"/>
            <rect id="Rectángulo_2679" data-name="Rectángulo 2679" width="10.221" height="14.801" transform="translate(82.44 116.514)" fill="#e0e0e0"/>
            <rect id="Rectángulo_2680" data-name="Rectángulo 2680" width="10.221" height="14.801" transform="translate(82.44 170.712)" fill="#e0e0e0"/>
            <rect id="Rectángulo_2681" data-name="Rectángulo 2681" width="103.681" height="79.973" transform="translate(0 265.487)" fill="#ebebeb"/>
            <path id="Trazado_5134" data-name="Trazado 5134" d="M679.989,436.11c.109,0,.2-17.821.2-39.805s-.091-39.814-.2-39.814-.209,17.821-.209,39.814S679.907,436.11,679.989,436.11Z" transform="translate(-654.05 -91.221)" fill="#e0e0e0"/>
            <rect id="Rectángulo_2682" data-name="Rectángulo 2682" width="7.945" height="8.988" transform="translate(8.788 327.249)" fill="#fafafa"/>
            <rect id="Rectángulo_2683" data-name="Rectángulo 2683" width="11.781" height="17.059" transform="translate(60.266 265.686)" fill="#e0e0e0"/>
            <rect id="Rectángulo_2684" data-name="Rectángulo 2684" width="11.781" height="17.059" transform="translate(60.266 328.156)" fill="#e0e0e0"/>
            <rect id="Rectángulo_2685" data-name="Rectángulo 2685" width="103.681" height="79.973" transform="translate(14.321 185.722)" fill="#ebebeb"/>
            <path id="Trazado_5135" data-name="Trazado 5135" d="M664.149,348.16c.118,0,.208-17.821.208-39.805s-.091-39.814-.208-39.814-.209,17.821-.209,39.814S664.031,348.16,664.149,348.16Z" transform="translate(-623.854 -83.036)" fill="#e0e0e0"/>
            <rect id="Rectángulo_2686" data-name="Rectángulo 2686" width="7.945" height="8.988" transform="translate(23.109 247.484)" fill="#fafafa"/>
            <rect id="Rectángulo_2687" data-name="Rectángulo 2687" width="11.781" height="17.059" transform="translate(74.586 185.921)" fill="#e0e0e0"/>
            <rect id="Rectángulo_2688" data-name="Rectángulo 2688" width="11.781" height="17.059" transform="translate(74.586 248.391)" fill="#e0e0e0"/>
            <rect id="Rectángulo_2689" data-name="Rectángulo 2689" width="89.959" height="69.38" transform="translate(205.538 117.448)" fill="#f5f5f5"/>
            <path id="Trazado_5136" data-name="Trazado 5136" d="M457.111,262.381c.1,0,.172-15.472.172-34.545s-.073-34.536-.172-34.536-.181,15.418-.181,34.536S457.012,262.381,457.111,262.381Z" transform="translate(-229.036 -76.034)" fill="#e0e0e0"/>
            <rect id="Rectángulo_2690" data-name="Rectángulo 2690" width="6.893" height="7.8" transform="translate(213.166 171.039)" fill="#fafafa"/>
            <rect id="Rectángulo_2691" data-name="Rectángulo 2691" width="10.221" height="14.801" transform="translate(257.832 117.629)" fill="#e0e0e0"/>
            <rect id="Rectángulo_2692" data-name="Rectángulo 2692" width="10.221" height="14.801" transform="translate(257.832 171.828)" fill="#e0e0e0"/>
            <rect id="Rectángulo_2693" data-name="Rectángulo 2693" width="89.959" height="69.38" transform="translate(197.557 48.249)" fill="#ebebeb"/>
            <path id="Trazado_5137" data-name="Trazado 5137" d="M465.9,186.071c.1,0,.181-15.418.181-34.536S466,116.99,465.9,116.99s-.181,15.418-.181,34.545S465.829,186.071,465.9,186.071Z" transform="translate(-245.807 -68.932)" fill="#e0e0e0"/>
            <rect id="Rectángulo_2694" data-name="Rectángulo 2694" width="6.893" height="7.8" transform="translate(205.185 101.84)" fill="#fafafa"/>
            <rect id="Rectángulo_2695" data-name="Rectángulo 2695" width="10.221" height="14.801" transform="translate(249.851 48.421)" fill="#e0e0e0"/>
            <rect id="Rectángulo_2696" data-name="Rectángulo 2696" width="10.221" height="14.801" transform="translate(249.851 102.619)" fill="#e0e0e0"/>
            <rect id="Rectángulo_2697" data-name="Rectángulo 2697" width="64.365" height="49.646" transform="translate(200.931 0.091)" fill="#ebebeb"/>
            <path id="Trazado_5138" data-name="Trazado 5138" d="M469.267,113.392c.073,0,.127-11.065.127-24.714S469.34,64,469.267,64s-.127,11.065-.127,24.714S469.2,113.392,469.267,113.392Z" transform="translate(-252.22 -64)" fill="#e0e0e0"/>
            <rect id="Rectángulo_2698" data-name="Rectángulo 2698" width="4.934" height="5.578" transform="translate(206.382 38.445)" fill="#fafafa"/>
            <rect id="Rectángulo_2699" data-name="Rectángulo 2699" width="7.31" height="10.593" transform="translate(238.342 0.227)" fill="#e0e0e0"/>
            <rect id="Rectángulo_2700" data-name="Rectángulo 2700" width="7.31" height="10.593" transform="translate(238.342 38.998)" fill="#e0e0e0"/>
            <rect id="Rectángulo_2701" data-name="Rectángulo 2701" width="103.681" height="79.973" transform="translate(175.383 266.602)" fill="#ebebeb"/>
            <path id="Trazado_5139" data-name="Trazado 5139" d="M486.549,437.34c.118,0,.209-17.821.209-39.805s-.091-39.814-.209-39.814-.2,17.821-.2,39.814S486.441,437.34,486.549,437.34Z" transform="translate(-285.192 -91.335)" fill="#e0e0e0"/>
            <rect id="Rectángulo_2702" data-name="Rectángulo 2702" width="7.945" height="8.988" transform="translate(184.18 328.364)" fill="#fafafa"/>
            <rect id="Rectángulo_2703" data-name="Rectángulo 2703" width="11.781" height="17.059" transform="translate(235.658 266.802)" fill="#e0e0e0"/>
            <rect id="Rectángulo_2704" data-name="Rectángulo 2704" width="11.781" height="17.059" transform="translate(235.658 329.271)" fill="#e0e0e0"/>
            <rect id="Rectángulo_2705" data-name="Rectángulo 2705" width="103.681" height="79.973" transform="translate(189.712 186.837)" fill="#ebebeb"/>
            <path id="Trazado_5140" data-name="Trazado 5140" d="M470.76,349.39c.118,0,.209-17.821.209-39.805s-.091-39.814-.209-39.814-.2,17.821-.2,39.814S470.651,349.39,470.76,349.39Z" transform="translate(-255.082 -83.15)" fill="#e0e0e0"/>
            <rect id="Rectángulo_2706" data-name="Rectángulo 2706" width="7.945" height="8.988" transform="translate(198.501 248.599)" fill="#fafafa"/>
            <rect id="Rectángulo_2707" data-name="Rectángulo 2707" width="11.781" height="17.059" transform="translate(249.978 187.037)" fill="#e0e0e0"/>
            <rect id="Rectángulo_2708" data-name="Rectángulo 2708" width="11.781" height="17.059" transform="translate(249.978 249.506)" fill="#e0e0e0"/>
            <path id="Trazado_5141" data-name="Trazado 5141" d="M55.73,427.794V419.26H230.315a2.331,2.331,0,0,1,2.331,2.331v3.873a2.331,2.331,0,0,1-2.331,2.331h-4.861v3.927a2.3,2.3,0,0,0,2.295,2.295h2.6a2.3,2.3,0,0,1,2.295,2.24V440.2a2.294,2.294,0,0,1-2.295,2.294H55.73v-8.534H96.424v-6.185Zm127.878,0H173.142v6.185h10.466Zm6.974,6.185h10.457v-6.185H190.582Zm-24.387-6.185H155.738v6.185h10.457Zm-17.431,0H138.3v6.185h10.439Zm-17.44,0H120.848v6.185H131.3Zm87.184,0H208.013v6.185h10.466ZM103.426,433.98h10.439v-6.185H103.4Z" transform="translate(359.464 -97.063)" fill="#e0e0e0"/>
          </g>
          <g id="freepik--Forklift--inject-3" transform="translate(41.074 36.776)">
            <rect id="Rectángulo_2709" data-name="Rectángulo 2709" width="94.484" height="72.881" transform="translate(380.006 116.042)" fill="#abccf4"/>
            <rect id="Rectángulo_2710" data-name="Rectángulo 2710" width="94.484" height="72.881" transform="translate(380.006 116.042)" opacity="0.3"/>
            <path id="Trazado_5142" data-name="Trazado 5142" d="M218.194,304.845c.082,0,.154-16.243.154-36.277s-.073-36.277-.154-36.277-.154,16.243-.154,36.277S218.113,304.845,218.194,304.845Z" transform="translate(185.483 -116.438)" fill="#263238"/>
            <rect id="Rectángulo_2711" data-name="Rectángulo 2711" width="7.246" height="8.19" transform="translate(388.014 172.335)" fill="#f5f5f5"/>
            <rect id="Rectángulo_2712" data-name="Rectángulo 2712" width="10.729" height="15.554" transform="translate(434.939 116.233)" fill="#263238"/>
            <rect id="Rectángulo_2713" data-name="Rectángulo 2713" width="10.729" height="15.554" transform="translate(434.939 173.152)" fill="#263238"/>
            <path id="Trazado_5143" data-name="Trazado 5143" d="M140.15,232.494h3.673l10.04.045H220.1l10.031-.054h0L220.1,232.44H153.863l-10.04.045h-3.428Z" transform="translate(240.672 -116.452)" fill="#263238"/>
            <rect id="Rectángulo_2714" data-name="Rectángulo 2714" width="94.484" height="72.881" transform="translate(301.348 115.951)" fill="#abccf4"/>
            <path id="Trazado_5144" data-name="Trazado 5144" d="M304.924,304.745c.082,0,.154-16.243.154-36.277s-.073-36.277-.154-36.277-.154,16.234-.154,36.277S304.87,304.745,304.924,304.745Z" transform="translate(20.095 -116.429)" fill="#263238"/>
            <rect id="Rectángulo_2715" data-name="Rectángulo 2715" width="7.246" height="8.19" transform="translate(309.356 172.245)" fill="#f5f5f5"/>
            <rect id="Rectángulo_2716" data-name="Rectángulo 2716" width="10.729" height="15.554" transform="translate(356.281 116.142)" fill="#fff" opacity="0.5"/>
            <rect id="Rectángulo_2717" data-name="Rectángulo 2717" width="10.729" height="15.554" transform="translate(356.281 173.061)" fill="#fff" opacity="0.5"/>
            <path id="Trazado_5145" data-name="Trazado 5145" d="M226.87,232.39h3.673l10.031.045h66.233l10.04-.045h0l-10.04-.054-33.121-.045-33.112.045-10.031.054H226.87Z" transform="translate(75.303 -116.438)" fill="#263238"/>
            <rect id="Rectángulo_2718" data-name="Rectángulo 2718" width="94.484" height="72.881" transform="translate(296.042 43.07)" fill="#abccf4"/>
            <path id="Trazado_5146" data-name="Trazado 5146" d="M310.774,224.385c.091,0,.154-16.243.154-36.277s-.064-36.277-.154-36.277-.154,16.234-.154,36.277S310.693,224.385,310.774,224.385Z" transform="translate(8.939 -108.95)" fill="#263238"/>
            <rect id="Rectángulo_2719" data-name="Rectángulo 2719" width="7.246" height="8.19" transform="translate(304.051 99.364)" fill="#f5f5f5"/>
            <rect id="Rectángulo_2720" data-name="Rectángulo 2720" width="10.729" height="15.554" transform="translate(350.975 43.261)" fill="#263238"/>
            <rect id="Rectángulo_2721" data-name="Rectángulo 2721" width="10.729" height="15.554" transform="translate(350.975 100.18)" fill="#263238"/>
            <path id="Trazado_5147" data-name="Trazado 5147" d="M232.74,151.994a.69.69,0,0,0,.236,0h13.468l33.112.045,33.121-.045h13.477a.69.69,0,0,0,.236,0h-3.673l-10.04-.054H246.444l-10.031.054H232.74Z" transform="translate(64.11 -108.96)" fill="#263238"/>
            <path id="Trazado_5148" data-name="Trazado 5148" d="M130.68,401.454V392.92H305.256a2.34,2.34,0,0,1,2.34,2.331v3.873a2.34,2.34,0,0,1-2.34,2.331h-4.861v3.882a2.3,2.3,0,0,0,2.3,2.3h2.594a2.3,2.3,0,0,1,2.3,2.295v3.918a2.3,2.3,0,0,1-2.3,2.295H130.68v-8.534h40.694v-6.185Zm127.878,0H248.1v6.185h10.448Zm6.974,6.185h10.457v-6.185H265.523ZM241.1,401.454H230.633v6.185H241.1Zm-17.44,0H213.2v6.185h10.475Zm-17.431,0H195.752v6.185h10.493Zm87.174,0H282.945v6.185H293.42ZM178.33,407.639h10.484v-6.185H178.348Z" transform="translate(175.466 -131.388)" fill="#455a64"/>
            <path id="Trazado_5149" data-name="Trazado 5149" d="M393.637,236.815a3.075,3.075,0,0,1,.091-4.39l29.448-27.834a3.174,3.174,0,0,1,4.344,0h0a3.174,3.174,0,0,1,.118,4.535l-11.745,12.352,6.113,5.886,3.183-2.53,22.211,25.44,11.872-11.418,14.311,42.091-2.839,57.137H437.823l2.3-67.9-22.084-31.452-.172-7.482-6.349-6.5-13.686,12.225a3.084,3.084,0,0,1-4.263-.154Z" transform="translate(-228.211 -113.781)" fill="#263238"/>
            <path id="Trazado_5150" data-name="Trazado 5150" d="M382.976,339.644c.127,0,.236-52.131.236-116.423s-.109-116.441-.236-116.441-.236,52.121-.236,116.441S382.876,339.644,382.976,339.644Z" transform="translate(-128.752 -104.758)" fill="#263238"/>
            <path id="Trazado_5151" data-name="Trazado 5151" d="M584.273,331.721l-20.025-55.64,7.527-3.047V262.286l-54.751-.843a5.324,5.324,0,0,1-5.188-4.725l-8.054-71.485a6.548,6.548,0,0,0-6.5-5.813h0a6.539,6.539,0,0,0-6.539,6.811l3.065,73.661-28.587.154-.97,13.432,84.544,3.31,22.048,54.135Z" transform="translate(-403.738 -111.518)" fill="#455a64"/>
            <path id="Trazado_5152" data-name="Trazado 5152" d="M518.786,339.628l71.176.562v4.743l-29.484-.381-46.961-.363L399.66,328.119,412.566,279h77.089a8.208,8.208,0,0,1,6.82,3.464Z" transform="translate(-350.848 -120.785)" fill="#263238"/>
            <path id="Trazado_5153" data-name="Trazado 5153" d="M540.756,118.649l51.7,165-.363,45.9H575.7v-45.61L533.31,119.093l-114.854-.644L396.49,290.159H383.53l26.727-170.5a9.741,9.741,0,0,1,9.568-7.936H531.433A9.731,9.731,0,0,1,540.756,118.649Z" transform="translate(-338.708 -105.217)" fill="#455a64"/>
            <path id="Trazado_5154" data-name="Trazado 5154" d="M623.49,400.725V356.648l-9.65-8.933-90.693-1.17-16.325-13.278a18.619,18.619,0,0,0-10.693-4.136l-17.468-.988s-7.836-5.4-15.418-10.747a56.856,56.856,0,0,0-32.849-10.466H380.124a6.884,6.884,0,0,0-6.884,6.884v86.911Z" transform="translate(-360.415 -123.385)" fill="#abccf4"/>
            <rect id="Rectángulo_2722" data-name="Rectángulo 2722" width="251.121" height="14.493" transform="translate(12.843 263.138)" fill="#263238"/>
            <path id="Trazado_5155" data-name="Trazado 5155" d="M448.69,407.031a31.053,31.053,0,1,1-31.5-30.591,31.053,31.053,0,0,1,31.5,30.591Z" transform="translate(-197.722 -129.854)" fill="#263238"/>
            <path id="Trazado_5156" data-name="Trazado 5156" d="M448.7,410.09v.073a31.053,31.053,0,1,1-62.1.907s0-.054,0-.082Z" transform="translate(-197.736 -132.986)" fill="#263238"/>
            <path id="Trazado_5157" data-name="Trazado 5157" d="M440.319,408.115a21.766,21.766,0,1,1-6.6-15.332,21.766,21.766,0,0,1,6.6,15.332Z" transform="translate(-198.602 -130.802)" fill="#fafafa"/>
            <path id="Trazado_5158" data-name="Trazado 5158" d="M418.278,386.63a21.766,21.766,0,0,1,22.111,21.485l-43.6.626a21.766,21.766,0,0,1,21.485-22.111Z" transform="translate(-198.672 -130.802)" fill="#e0e0e0"/>
            <path id="Trazado_5159" data-name="Trazado 5159" d="M432.733,409.114A13.277,13.277,0,1,1,419.292,396a13.277,13.277,0,0,1,13.441,13.114Z" transform="translate(-199.532 -131.674)" fill="#263238"/>
            <path id="Trazado_5160" data-name="Trazado 5160" d="M616.23,407.031a31.053,31.053,0,1,1-31.5-30.591,31.053,31.053,0,0,1,31.5,30.591Z" transform="translate(-517.209 -129.854)" fill="#263238"/>
            <path id="Trazado_5161" data-name="Trazado 5161" d="M616.235,410.09v.073a31.053,31.053,0,1,1-62.1.907s0-.054,0-.082Z" transform="translate(-517.224 -132.986)" fill="#263238"/>
            <path id="Trazado_5162" data-name="Trazado 5162" d="M607.859,408.115a21.766,21.766,0,1,1-6.6-15.332A21.766,21.766,0,0,1,607.859,408.115Z" transform="translate(-518.09 -130.802)" fill="#fafafa"/>
            <path id="Trazado_5163" data-name="Trazado 5163" d="M585.818,386.63a21.767,21.767,0,0,1,22.111,21.485l-43.6.626a21.766,21.766,0,0,1,21.485-22.111Z" transform="translate(-518.16 -130.802)" fill="#e0e0e0"/>
            <path id="Trazado_5164" data-name="Trazado 5164" d="M600.283,409.114a13.278,13.278,0,1,1-4.014-9.351,13.277,13.277,0,0,1,4.014,9.351Z" transform="translate(-519.039 -131.674)" fill="#263238"/>
            <path id="Trazado_5165" data-name="Trazado 5165" d="M544.028,383.829a1.807,1.807,0,0,0,.154-.218l.4-.653.635-1.07a16.223,16.223,0,0,1,.907-1.424,44.066,44.066,0,0,1,7-8.162c.8-.807,1.769-1.506,2.721-2.313s2.041-1.5,3.129-2.267a25.362,25.362,0,0,1,3.573-2.1c.626-.327,1.261-.68,1.914-1l2.041-.907a44.689,44.689,0,0,1,9-2.721,42.005,42.005,0,0,1,28.7,4.553l1.941,1.088c.626.381,1.215.8,1.814,1.179,1.224.744,2.276,1.651,3.356,2.44a27.624,27.624,0,0,1,2.9,2.548,32.757,32.757,0,0,1,2.485,2.567,44.042,44.042,0,0,1,6.194,8.8,13.868,13.868,0,0,1,.762,1.505c.209.435.39.807.535,1.125l.336.689a1.427,1.427,0,0,0,.127.227.9.9,0,0,0-.082-.245l-.29-.707-.49-1.143a14.325,14.325,0,0,0-.735-1.533,42.2,42.2,0,0,0-6.113-8.933c-.717-.907-1.614-1.705-2.476-2.612s-1.9-1.705-2.911-2.594a25.788,25.788,0,0,0-3.365-2.476c-.6-.39-1.2-.807-1.814-1.2l-1.95-1.116a45.41,45.41,0,0,0-8.77-3.628,42.2,42.2,0,0,0-29.312,1.841l-2.05.907c-.662.317-1.3.68-1.932,1.016-1.3.635-2.431,1.451-3.628,2.14a23.6,23.6,0,0,0-3.138,2.313,32.343,32.343,0,0,0-2.721,2.349,42.44,42.44,0,0,0-6.929,8.317,15.538,15.538,0,0,0-.907,1.451l-.589,1.1c-.154.281-.272.5-.363.68S544.019,383.82,544.028,383.829Z" transform="translate(-516.465 -128.301)" fill="#263238"/>
            <path id="Trazado_5166" data-name="Trazado 5166" d="M376.17,389.647a1.05,1.05,0,0,0,.127-.245c.073-.19.172-.435.3-.744l.49-1.206c.218-.472.462-1.016.735-1.623a49.328,49.328,0,0,1,5.868-9.641,38.535,38.535,0,0,1,12.643-10.765,37.183,37.183,0,0,1,9.341-3.111,47.278,47.278,0,0,1,10.548-.961,46.562,46.562,0,0,1,10.5,1.351,39,39,0,0,1,9.178,3.582,45.9,45.9,0,0,1,13.051,10.366,51.871,51.871,0,0,1,6.349,9.305c.635,1.179,1.116,2.1,1.415,2.721.145.3.272.535.363.717a1.006,1.006,0,0,0,.136.236.836.836,0,0,0-.091-.254l-.327-.735c-.272-.653-.725-1.587-1.333-2.784a49.492,49.492,0,0,0-6.258-9.45,45.664,45.664,0,0,0-13.1-10.529,39.425,39.425,0,0,0-9.269-3.628,47.079,47.079,0,0,0-10.611-1.369,47.715,47.715,0,0,0-10.656,1.016,37.44,37.44,0,0,0-9.441,3.174,38.453,38.453,0,0,0-12.7,10.956,47.6,47.6,0,0,0-5.777,9.768l-.689,1.642c-.172.481-.326.907-.444,1.224s-.2.562-.263.762A1.034,1.034,0,0,0,376.17,389.647Z" transform="translate(-196.796 -128.405)" fill="#263238"/>
            <rect id="Rectángulo_2723" data-name="Rectángulo 2723" width="137.654" height="16.098" transform="translate(263.139 261.532)" fill="#263238"/>
            <path id="Trazado_5167" data-name="Trazado 5167" d="M360.22,400.039a4.009,4.009,0,1,0,4.009-4.009A4.009,4.009,0,0,0,360.22,400.039Z" transform="translate(-93.354 -131.677)" fill="#455a64"/>
            <rect id="Rectángulo_2724" data-name="Rectángulo 2724" width="11.491" height="228.257" transform="translate(264.944 5.233)" fill="#455a64"/>
            <path id="Trazado_5168" data-name="Trazado 5168" d="M455.96,376.316c0,.127,19.372.236,43.261.236s43.261-.109,43.261-.236-19.363-.236-43.261-.236S455.96,376.189,455.96,376.316Z" transform="translate(-354.428 -129.82)" fill="#263238"/>
            <path id="Trazado_5169" data-name="Trazado 5169" d="M531.9,368.709c.136,0,.236-8.425.236-18.819s-.1-18.81-.236-18.81-.236,8.416-.236,18.81S531.769,368.709,531.9,368.709Z" transform="translate(-412.733 -125.632)" fill="#263238"/>
            <rect id="Rectángulo_2725" data-name="Rectángulo 2725" width="23.453" height="10.466" transform="translate(254.215)" fill="#263238"/>
            <rect id="Rectángulo_2726" data-name="Rectángulo 2726" width="15.1" height="30.128" transform="translate(263.139 231.604)" fill="#263238"/>
            <rect id="Rectángulo_2727" data-name="Rectángulo 2727" width="94.484" height="72.881" transform="translate(298.201 188.86)" fill="#abccf4"/>
            <rect id="Rectángulo_2728" data-name="Rectángulo 2728" width="94.484" height="72.881" transform="translate(298.201 188.86)" opacity="0.3"/>
            <path id="Trazado_5170" data-name="Trazado 5170" d="M308.394,385.135c.082,0,.154-16.243.154-36.277s-.073-36.277-.154-36.277-.154,16.243-.154,36.277S308.313,385.135,308.394,385.135Z" transform="translate(13.478 -123.911)" fill="#263238"/>
            <rect id="Rectángulo_2729" data-name="Rectángulo 2729" width="7.246" height="8.19" transform="translate(306.209 245.153)" fill="#f5f5f5"/>
            <rect id="Rectángulo_2730" data-name="Rectángulo 2730" width="10.729" height="15.554" transform="translate(353.134 189.05)" fill="#263238"/>
            <rect id="Rectángulo_2731" data-name="Rectángulo 2731" width="10.729" height="15.554" transform="translate(353.134 245.969)" fill="#263238"/>
            <path id="Trazado_5171" data-name="Trazado 5171" d="M230.37,312.79h3.673l10.04.045,33.085.145h33.121l10.031-.045h3.673a1.208,1.208,0,0,0-.236,0H320.32l-10.031-.045-33.121-.045-33.112.045-10.04.045h-3.437A1.207,1.207,0,0,0,230.37,312.79Z" transform="translate(68.656 -123.93)" fill="#263238"/>
            <rect id="Rectángulo_2732" data-name="Rectángulo 2732" width="94.484" height="72.881" transform="translate(397.311 188.86)" fill="#abccf4"/>
            <path id="Trazado_5172" data-name="Trazado 5172" d="M199.115,385.135c.091,0,.154-16.243.154-36.277s-.063-36.277-.154-36.277-.145,16.243-.145,36.277S199.033,385.135,199.115,385.135Z" transform="translate(221.857 -123.911)" fill="#263238"/>
            <rect id="Rectángulo_2733" data-name="Rectángulo 2733" width="7.246" height="8.19" transform="translate(405.31 245.153)" fill="#f5f5f5"/>
            <rect id="Rectángulo_2734" data-name="Rectángulo 2734" width="10.729" height="15.554" transform="translate(452.234 189.05)" fill="#fff" opacity="0.5"/>
            <rect id="Rectángulo_2735" data-name="Rectángulo 2735" width="10.729" height="15.554" transform="translate(452.234 245.969)" fill="#fff" opacity="0.5"/>
            <path id="Trazado_5173" data-name="Trazado 5173" d="M121.07,312.781h3.673l10.031.045h66.233l10.04-.045h3.673a1.376,1.376,0,0,0-.245,0h-3.428l-10.04-.045-33.121-.045-33.112.045-10.031.045h-3.428a1.262,1.262,0,0,0-.245,0Z" transform="translate(277.057 -123.921)" fill="#263238"/>
            <path id="Trazado_5174" data-name="Trazado 5174" d="M662.4,334.63c-4.87,1.179-8.961,6.122-8.879,11.137a11.491,11.491,0,0,0,8.879,10.72" transform="translate(-653.52 -125.963)" fill="#abccf4"/>
            <g id="Grupo_6196" data-name="Grupo 6196" transform="translate(0 208.667)" opacity="0.6">
              <path id="Trazado_5175" data-name="Trazado 5175" d="M662.4,334.63c-4.87,1.179-8.961,6.122-8.879,11.137a11.491,11.491,0,0,0,8.879,10.72" transform="translate(-653.52 -334.63)" fill="#fff"/>
            </g>
            <rect id="Rectángulo_2736" data-name="Rectángulo 2736" width="4.163" height="27.58" transform="translate(8.681 205.856)" fill="#abccf4"/>
            <rect id="Rectángulo_2737" data-name="Rectángulo 2737" width="4.163" height="27.58" transform="translate(8.681 205.856)" opacity="0.3"/>
          </g>
          <g id="freepik--Floor--inject-3" transform="translate(10.974 345.215)">
            <path id="Trazado_5176" data-name="Trazado 5176" d="M50,444.876c0,.136,131.27.236,293.157.236s293.175-.1,293.175-.236-131.242-.236-293.193-.236S50,444.749,50,444.876Z" transform="translate(-50 -444.64)" fill="#263238"/>
          </g>
          <g id="freepik--Plant--inject-3" transform="translate(559.422 294.311)">
            <path id="Trazado_5177" data-name="Trazado 5177" d="M60.917,409.415c1.46,1.968,4.172,1.224,5.4,0a10.172,10.172,0,0,0,2.168-4.752c1.007-3.891,2.013-7.972,1.079-11.881a6.521,6.521,0,0,0-1.6-3.183,3.437,3.437,0,0,0-3.283-1c-1.369.4-2.186,1.769-2.775,3.065a28.387,28.387,0,0,0-2.458,12.171,9.9,9.9,0,0,0,1.478,5.578" transform="translate(-40.609 -388.512)" fill="#abccf4"/>
            <g id="Grupo_6197" data-name="Grupo 6197" transform="translate(18.832)" opacity="0.2">
              <path id="Trazado_5178" data-name="Trazado 5178" d="M60.917,409.415c1.46,1.968,4.172,1.224,5.4,0a10.172,10.172,0,0,0,2.168-4.752c1.007-3.891,2.013-7.972,1.079-11.881a6.521,6.521,0,0,0-1.6-3.183,3.437,3.437,0,0,0-3.283-1c-1.369.4-2.186,1.769-2.775,3.065a28.387,28.387,0,0,0-2.458,12.171,9.9,9.9,0,0,0,1.478,5.578" transform="translate(-59.441 -388.512)"/>
            </g>
            <path id="Trazado_5179" data-name="Trazado 5179" d="M52.575,422.458a12.171,12.171,0,0,1,7.509-1.116,6.349,6.349,0,0,1,3.773,1.56,2.692,2.692,0,0,1,.136,3.727,3.627,3.627,0,0,1-2.331.653c-2,0-4.217-.263-5.777.979-.907.716-1.469,1.868-2.548,2.231a2.557,2.557,0,0,1-2.857-1.179,4.4,4.4,0,0,1-.408-3.238A4.97,4.97,0,0,1,52.575,422.458Z" transform="translate(-26.735 -391.551)" fill="#abccf4"/>
            <path id="Trazado_5180" data-name="Trazado 5180" d="M88.546,413.108a7.256,7.256,0,0,0,.952-6.739,12.9,12.9,0,0,0-4.09-5.659,21.531,21.531,0,0,0-7.255-4.009,7.555,7.555,0,0,0-3.22-.453,3.347,3.347,0,0,0-2.639,1.7c-.716,1.442.054,3.156.907,4.535a54.107,54.107,0,0,0,4.87,6.992,12.7,12.7,0,0,0,5.26,4.272c2.159.762,4.371.6,5.442-.907" transform="translate(-72.011 -389.23)" fill="#abccf4"/>
            <path id="Trazado_5181" data-name="Trazado 5181" d="M57.622,442.983a4,4,0,0,0,.1-.907c.054-.671.109-1.506.181-2.494a34.514,34.514,0,0,1,.463-3.628,28.048,28.048,0,0,1,1.206-4.335,15.68,15.68,0,0,1,2.1-3.963,8.225,8.225,0,0,1,2.721-2.376,7.725,7.725,0,0,1,2.322-.8,3.867,3.867,0,0,0,.907-.154,4.433,4.433,0,0,0-.907,0,7.029,7.029,0,0,0-2.422.7,8.29,8.29,0,0,0-2.875,2.412,15.418,15.418,0,0,0-2.168,4.036,25.713,25.713,0,0,0-1.224,4.344,31.447,31.447,0,0,0-.39,3.7c0,1.061-.054,1.914-.054,2.5A4.807,4.807,0,0,0,57.622,442.983Z" transform="translate(-36.598 -391.843)" fill="#263238"/>
            <path id="Trazado_5182" data-name="Trazado 5182" d="M64.911,438.555a1.542,1.542,0,0,0,0-.426c0-.317,0-.716,0-1.206,0-1.043-.073-2.567-.063-4.435,0-3.755.172-8.933.644-14.638s1.17-10.883,1.814-14.511c.154-.907.308-1.759.463-2.485s.263-1.36.381-1.877.19-.907.254-1.179a2.059,2.059,0,0,0,.063-.417,2.8,2.8,0,0,0-.136.4c-.073.263-.19.689-.317,1.17s-.29,1.134-.453,1.859-.345,1.56-.517,2.485A136.657,136.657,0,0,0,65.1,417.8c-.472,5.714-.617,10.883-.544,14.674,0,1.877.109,3.4.19,4.444a11.259,11.259,0,0,0,.1,1.206A3.241,3.241,0,0,0,64.911,438.555Z" transform="translate(-43.769 -389.337)" fill="#263238"/>
            <path id="Trazado_5183" data-name="Trazado 5183" d="M82.765,428.912a7.111,7.111,0,0,0,0-1.27c-.073-.807-.209-1.977-.481-3.4A46.843,46.843,0,0,0,78.8,413.449a31.57,31.57,0,0,0-6.349-9.369,15.9,15.9,0,0,0-1.478-1.3c-.227-.181-.426-.363-.626-.508l-.571-.372a8.234,8.234,0,0,0-1.079-.644,37.768,37.768,0,0,1,3.564,3.011,33.238,33.238,0,0,1,6.222,9.332,48.068,48.068,0,0,1,2.222,5.786,48.978,48.978,0,0,1,1.315,4.9c.3,1.415.481,2.576.6,3.374a9.342,9.342,0,0,0,.145,1.252Z" transform="translate(-61.868 -389.699)" fill="#263238"/>
          </g>
        </g>
      </g>
      <g id="Grupo_6198" data-name="Grupo 6198" transform="translate(-4328.488 -2245.905)">
        <rect id="Rectángulo_2608" data-name="Rectángulo 2608" width="103.319" height="79.684" transform="translate(5590.579 2526.748)" fill="#f5f5f5"/>
        <path id="Trazado_5111" data-name="Trazado 5111" d="M457.128,272.641c-.115,0-.2-17.77-.2-39.676s.083-39.665.2-39.665.208,17.708.208,39.665S457.242,272.641,457.128,272.641Z" transform="translate(5210.886 2333.24)" fill="#e0e0e0"/>
        <rect id="Rectángulo_2609" data-name="Rectángulo 2609" width="7.916" height="8.958" transform="translate(5677.221 2588.298)" fill="#fafafa"/>
        <rect id="Rectángulo_2610" data-name="Rectángulo 2610" width="11.739" height="16.999" transform="translate(5622.099 2526.957)" fill="#e0e0e0"/>
        <rect id="Rectángulo_2611" data-name="Rectángulo 2611" width="11.739" height="16.999" transform="translate(5622.099 2589.204)" fill="#e0e0e0"/>
        <rect id="Rectángulo_2612" data-name="Rectángulo 2612" width="103.319" height="79.684" transform="translate(5599.745 2447.272)" fill="#ebebeb"/>
        <path id="Trazado_5112" data-name="Trazado 5112" d="M465.928,196.331c-.115,0-.208-17.708-.208-39.665s.094-39.676.208-39.676.208,17.708.208,39.676S466.012,196.331,465.928,196.331Z" transform="translate(5211.251 2330.064)" fill="#e0e0e0"/>
        <rect id="Rectángulo_2613" data-name="Rectángulo 2613" width="7.916" height="8.958" transform="translate(5686.388 2508.822)" fill="#fafafa"/>
        <rect id="Rectángulo_2614" data-name="Rectángulo 2614" width="11.739" height="16.999" transform="translate(5631.265 2447.47)" fill="#e0e0e0"/>
        <rect id="Rectángulo_2615" data-name="Rectángulo 2615" width="11.739" height="16.999" transform="translate(5631.265 2509.718)" fill="#e0e0e0"/>
        <rect id="Rectángulo_2616" data-name="Rectángulo 2616" width="73.924" height="57.019" transform="translate(5625.265 2391.962)" fill="#ebebeb"/>
        <path id="Trazado_5113" data-name="Trazado 5113" d="M469.286,120.727c-.083,0-.146-12.708-.146-28.384S469.2,64,469.286,64s.146,12.708.146,28.384S469.359,120.727,469.286,120.727Z" transform="translate(5211.394 2327.858)" fill="#e0e0e0"/>
        <rect id="Rectángulo_2617" data-name="Rectángulo 2617" width="5.666" height="6.406" transform="translate(5687.263 2436.012)" fill="#fafafa"/>
        <rect id="Rectángulo_2618" data-name="Rectángulo 2618" width="8.396" height="12.166" transform="translate(5647.827 2392.118)" fill="#e0e0e0"/>
        <rect id="Rectángulo_2619" data-name="Rectángulo 2619" width="8.396" height="12.166" transform="translate(5647.827 2436.648)" fill="#e0e0e0"/>
        <rect id="Rectángulo_2620" data-name="Rectángulo 2620" width="119.079" height="91.851" transform="translate(5609.453 2698.054)" fill="#ebebeb"/>
        <path id="Trazado_5114" data-name="Trazado 5114" d="M486.59,449.164c-.135,0-.24-20.468-.24-45.717s.1-45.727.24-45.727.229,20.468.229,45.727S486.715,449.164,486.59,449.164Z" transform="translate(5212.11 2340.084)" fill="#e0e0e0"/>
        <rect id="Rectángulo_2621" data-name="Rectángulo 2621" width="9.125" height="10.323" transform="translate(5709.303 2768.989)" fill="#fafafa"/>
        <rect id="Rectángulo_2622" data-name="Rectángulo 2622" width="13.531" height="19.593" transform="translate(5645.774 2698.283)" fill="#e0e0e0"/>
        <rect id="Rectángulo_2623" data-name="Rectángulo 2623" width="13.531" height="19.593" transform="translate(5645.774 2770.031)" fill="#e0e0e0"/>
        <rect id="Rectángulo_2624" data-name="Rectángulo 2624" width="119.079" height="91.851" transform="translate(5592.996 2606.443)" fill="#ebebeb"/>
        <path id="Trazado_5115" data-name="Trazado 5115" d="M470.8,361.214c-.135,0-.24-20.468-.24-45.717s.1-45.727.24-45.727.229,20.468.229,45.727S470.925,361.214,470.8,361.214Z" transform="translate(5211.453 2336.423)" fill="#e0e0e0"/>
        <rect id="Rectángulo_2625" data-name="Rectángulo 2625" width="9.125" height="10.323" transform="translate(5692.856 2677.378)" fill="#fafafa"/>
        <rect id="Rectángulo_2626" data-name="Rectángulo 2626" width="13.531" height="19.593" transform="translate(5629.328 2606.672)" fill="#e0e0e0"/>
        <rect id="Rectángulo_2627" data-name="Rectángulo 2627" width="13.531" height="19.593" transform="translate(5629.328 2678.42)" fill="#e0e0e0"/>
      </g>
      <g id="Grupo_6199" data-name="Grupo 6199" transform="translate(-3524.197 -1122.01)">
        <g id="freepik--Boxes--inject-6" transform="translate(4380.197 1511.694)">
          <rect id="Rectángulo_2665-2" data-name="Rectángulo 2665" width="130.953" height="77.408" transform="translate(22.824)" fill="#abccf4"/>
          <rect id="Rectángulo_2666-2" data-name="Rectángulo 2666" width="130.953" height="77.408" transform="translate(22.824)" fill="#fff" opacity="0.4"/>
          <rect id="Rectángulo_2667-2" data-name="Rectángulo 2667" width="56.147" height="77.408" transform="translate(22.824)" fill="#fff" opacity="0.2"/>
          <rect id="Rectángulo_2668-2" data-name="Rectángulo 2668" width="9.316" height="12.168" transform="translate(26.385 4.257)" fill="#263238"/>
          <rect id="Rectángulo_2669-2" data-name="Rectángulo 2669" width="9.316" height="12.168" transform="translate(38.04 4.257)" fill="#263238"/>
          <path id="Trazado_5130-2" data-name="Trazado 5130" d="M93.122,298.445l-2.536-3.535-2.536,3.535h1.6v3.311h1.866v-3.311Z" transform="translate(-59.549 -287.985)" fill="#fff"/>
          <path id="Trazado_5131-2" data-name="Trazado 5131" d="M102.658,295H100.03l-.145.631h.447l-.71,1.984.263-1.59h-.526L99.478,295H96.521a3.351,3.351,0,0,0,2.759,3.482v2.825c-.657.105-1.156.486-1.156.972h2.97c0-.486-.512-.867-1.169-.972v-2.891A3.351,3.351,0,0,0,102.658,295Z" transform="translate(-56.891 -287.957)" fill="#fff"/>
          <rect id="Rectángulo_2670-2" data-name="Rectángulo 2670" width="22.391" height="16.635" transform="translate(126.078 55.714)" fill="#263238"/>
          <rect id="Rectángulo_2671-2" data-name="Rectángulo 2671" width="12.155" height="0.723" transform="translate(128.969 59.051)" fill="#abccf4"/>
          <rect id="Rectángulo_2672-2" data-name="Rectángulo 2672" width="6.071" height="0.723" transform="translate(128.969 61.548)" fill="#abccf4"/>
          <rect id="Rectángulo_2673-2" data-name="Rectángulo 2673" width="9.277" height="0.723" transform="translate(128.969 64.031)" fill="#abccf4"/>
          <rect id="Rectángulo_2674-2" data-name="Rectángulo 2674" width="168.941" height="77.408" transform="translate(0 76.908)" fill="#abccf4"/>
          <rect id="Rectángulo_2675-2" data-name="Rectángulo 2675" width="94.135" height="77.408" transform="translate(0 76.908)" fill="#fff" opacity="0.2"/>
          <rect id="Rectángulo_2676-2" data-name="Rectángulo 2676" width="16.031" height="5.138" transform="translate(34.86 76.908)" fill="#263238"/>
          <rect id="Rectángulo_2677-2" data-name="Rectángulo 2677" width="16.031" height="5.138" transform="translate(34.86 148.968)" fill="#263238"/>
          <rect id="Rectángulo_2678-2" data-name="Rectángulo 2678" width="9.316" height="12.168" transform="translate(99.798 81.179)" fill="#263238"/>
          <rect id="Rectángulo_2679-2" data-name="Rectángulo 2679" width="9.316" height="12.168" transform="translate(111.453 81.179)" fill="#263238"/>
          <path id="Trazado_5132-2" data-name="Trazado 5132" d="M148.992,356.975l-2.536-3.535-2.536,3.535h1.6v3.311h1.866v-3.311Z" transform="translate(-42.006 -269.607)" fill="#fff"/>
          <path id="Trazado_5133-2" data-name="Trazado 5133" d="M158.515,353.48h-2.628l-.145.631h.447l-.71,2,.263-1.6h-.526l.118-1.025h-2.9a3.364,3.364,0,0,0,2.759,3.5v2.812c-.657.105-1.156.486-1.156.972h2.93c0-.486-.512-.867-1.169-.972v-2.812A3.377,3.377,0,0,0,158.515,353.48Z" transform="translate(-39.335 -269.594)" fill="#fff"/>
          <rect id="Rectángulo_2680-2" data-name="Rectángulo 2680" width="22.391" height="16.635" transform="translate(5.506 128.601)" fill="#fff"/>
          <rect id="Rectángulo_2681-2" data-name="Rectángulo 2681" width="12.155" height="0.723" transform="translate(8.396 131.939)" fill="#abccf4"/>
          <rect id="Rectángulo_2682-2" data-name="Rectángulo 2682" width="6.071" height="0.723" transform="translate(8.396 134.435)" fill="#abccf4"/>
          <rect id="Rectángulo_2683-2" data-name="Rectángulo 2683" width="9.277" height="0.723" transform="translate(8.396 136.919)" fill="#abccf4"/>
        </g>
        <g id="freepik--big-box--inject-6" transform="translate(4650.868 1432.105)">
          <rect id="Rectángulo_2687-2" data-name="Rectángulo 2687" width="183.855" height="233.905" transform="translate(0 0)" fill="#f6f6f6"/>
          <rect id="Rectángulo_2688-2" data-name="Rectángulo 2688" width="183.855" height="233.905" transform="translate(0 0)" fill="#dcdcdc" opacity="0.3"/>
          <rect id="Rectángulo_2689-2" data-name="Rectángulo 2689" width="23.232" height="17.266" transform="translate(77.671 7.989)" fill="#fff"/>
          <rect id="Rectángulo_2690-2" data-name="Rectángulo 2690" width="12.614" height="0.749" transform="translate(80.666 11.445)" fill="#abccf4"/>
          <rect id="Rectángulo_2691-2" data-name="Rectángulo 2691" width="6.307" height="0.749" transform="translate(80.666 14.034)" fill="#abccf4"/>
          <rect id="Rectángulo_2692-2" data-name="Rectángulo 2692" width="9.618" height="0.749" transform="translate(80.666 16.622)" fill="#abccf4"/>
          <rect id="Rectángulo_2693-2" data-name="Rectángulo 2693" width="23.232" height="17.266" transform="translate(6.044 206.245)" fill="#fff"/>
          <rect id="Rectángulo_2694-2" data-name="Rectángulo 2694" width="12.614" height="0.749" transform="translate(9.04 209.701)" fill="#abccf4"/>
          <rect id="Rectángulo_2695-2" data-name="Rectángulo 2695" width="6.307" height="0.749" transform="translate(9.04 212.29)" fill="#abccf4"/>
          <rect id="Rectángulo_2696-2" data-name="Rectángulo 2696" width="9.618" height="0.749" transform="translate(9.04 214.878)" fill="#abccf4"/>
          <rect id="Rectángulo_2697-2" data-name="Rectángulo 2697" width="9.658" height="12.628" transform="translate(169.125 7.989)" fill="#263238"/>
          <rect id="Rectángulo_2698-2" data-name="Rectángulo 2698" width="9.658" height="12.628" transform="translate(169.125 23.166)" fill="#263238"/>
          <path id="Trazado_5437" data-name="Trazado 5437" d="M407.986,250.846l-2.628-3.666-2.628,3.666H404.4v3.43h1.932v-3.43Z" transform="translate(-231.411 -236.432)" fill="#fff"/>
          <path id="Trazado_5438" data-name="Trazado 5438" d="M408.7,258.77h-2.838l-.144.657h.46l-.736,2.063.276-1.656h-.539l.118-1.064h-3.022a3.5,3.5,0,0,0,2.865,3.627v2.917c-.683.105-1.2.512-1.2,1.012h3.035c0-.5-.526-.907-1.209-1.012V262.4A3.5,3.5,0,0,0,408.7,258.77Z" transform="translate(-231.556 -232.792)" fill="#fff"/>
          <rect id="Rectángulo_2699-2" data-name="Rectángulo 2699" width="109.088" height="233.905" transform="translate(0 0)" fill="#fff" opacity="0.2"/>
          <path id="Trazado_5439" data-name="Trazado 5439" d="M456.2,352.582H422.9V239h-3.351V352.582H325.633V239h-3.364V352.582H272.35v3.364h49.919V472.905h3.364V355.946h93.912V472.905H422.9V355.946H456.2Z" transform="translate(-272.35 -239)" fill="#abccf4"/>
          <path id="Trazado_5440" data-name="Trazado 5440" d="M456.2,352.582H422.9V239h-3.351V352.582H325.633V239h-3.364V352.582H272.35v3.364h49.919V472.905h3.364V355.946h93.912V472.905H422.9V355.946H456.2Z" transform="translate(-272.35 -239)" fill="#abccf4"/>
          <path id="Trazado_5441" data-name="Trazado 5441" d="M456.2,352.582H422.9V239h-3.351V352.582H325.633V239h-3.364V352.582H272.35v3.364h49.919V472.905h3.364V355.946h93.912V472.905H422.9V355.946H456.2Z" transform="translate(-272.35 -239)" opacity="0.2"/>
          <path id="Trazado_5442" data-name="Trazado 5442" d="M430.137,352.582v3.364h-33.31V472.905h-3.364V355.946H355.37v-3.364h38.093V239h3.364V352.582Z" transform="translate(-246.282 -239)" opacity="0.2"/>
        </g>
        <g id="freepik--Boxes--inject-6-2" data-name="freepik--Boxes--inject-6" transform="translate(3909.197 1549.057)">
          <rect id="Rectángulo_2665-3" data-name="Rectángulo 2665" width="99.246" height="58.665" transform="translate(17.298)" fill="#abccf4"/>
          <rect id="Rectángulo_2666-3" data-name="Rectángulo 2666" width="99.246" height="58.665" transform="translate(17.298)" fill="#fff" opacity="0.4"/>
          <rect id="Rectángulo_2667-3" data-name="Rectángulo 2667" width="42.553" height="58.665" transform="translate(17.298)" fill="#fff" opacity="0.2"/>
          <rect id="Rectángulo_2668-3" data-name="Rectángulo 2668" width="7.061" height="9.222" transform="translate(19.997 3.227)" fill="#263238"/>
          <rect id="Rectángulo_2669-3" data-name="Rectángulo 2669" width="7.061" height="9.222" transform="translate(28.83 3.227)" fill="#263238"/>
          <path id="Trazado_5130-3" data-name="Trazado 5130" d="M91.894,297.589l-1.922-2.679-1.922,2.679h1.215v2.51h1.414v-2.51Z" transform="translate(-66.45 -289.662)" fill="#fff"/>
          <path id="Trazado_5131-3" data-name="Trazado 5131" d="M101.171,295H99.179l-.11.478h.339l-.538,1.5.2-1.2h-.4l.09-.777H96.52a2.539,2.539,0,0,0,2.091,2.639v2.141c-.5.08-.876.368-.876.737h2.251c0-.368-.388-.657-.886-.737v-2.191A2.539,2.539,0,0,0,101.171,295Z" transform="translate(-66.485 -289.662)" fill="#fff"/>
          <rect id="Rectángulo_2670-3" data-name="Rectángulo 2670" width="16.969" height="12.607" transform="translate(95.552 42.224)" fill="#263238"/>
          <rect id="Rectángulo_2671-3" data-name="Rectángulo 2671" width="9.212" height="0.548" transform="translate(97.743 44.753)" fill="#abccf4"/>
          <rect id="Rectángulo_2672-3" data-name="Rectángulo 2672" width="4.601" height="0.548" transform="translate(97.743 46.646)" fill="#abccf4"/>
          <rect id="Rectángulo_2673-3" data-name="Rectángulo 2673" width="7.031" height="0.548" transform="translate(97.743 48.528)" fill="#abccf4"/>
          <rect id="Rectángulo_2674-3" data-name="Rectángulo 2674" width="128.036" height="58.665" transform="translate(0 58.287)" fill="#abccf4"/>
          <rect id="Rectángulo_2675-3" data-name="Rectángulo 2675" width="71.343" height="58.665" transform="translate(0 58.287)" fill="#fff" opacity="0.2"/>
          <rect id="Rectángulo_2676-3" data-name="Rectángulo 2676" width="12.149" height="3.894" transform="translate(26.42 58.287)" fill="#263238"/>
          <rect id="Rectángulo_2677-3" data-name="Rectángulo 2677" width="12.149" height="3.894" transform="translate(26.42 112.899)" fill="#263238"/>
          <rect id="Rectángulo_2678-3" data-name="Rectángulo 2678" width="7.061" height="9.222" transform="translate(75.635 61.524)" fill="#263238"/>
          <rect id="Rectángulo_2679-3" data-name="Rectángulo 2679" width="7.061" height="9.222" transform="translate(84.468 61.524)" fill="#263238"/>
          <path id="Trazado_5132-3" data-name="Trazado 5132" d="M147.764,356.119l-1.922-2.679-1.922,2.679h1.215v2.51h1.414v-2.51Z" transform="translate(-66.682 -289.905)" fill="#fff"/>
          <path id="Trazado_5133-3" data-name="Trazado 5133" d="M157.041,353.48h-1.992l-.11.478h.339l-.538,1.514.2-1.215h-.4l.09-.777h-2.2a2.549,2.549,0,0,0,2.091,2.649v2.131c-.5.08-.876.368-.876.737h2.221c0-.368-.388-.657-.886-.737v-2.131A2.559,2.559,0,0,0,157.041,353.48Z" transform="translate(-66.717 -289.905)" fill="#fff"/>
          <rect id="Rectángulo_2680-3" data-name="Rectángulo 2680" width="16.969" height="12.607" transform="translate(4.173 97.464)" fill="#fff"/>
          <rect id="Rectángulo_2681-3" data-name="Rectángulo 2681" width="9.212" height="0.548" transform="translate(6.363 99.993)" fill="#abccf4"/>
          <rect id="Rectángulo_2682-3" data-name="Rectángulo 2682" width="4.601" height="0.548" transform="translate(6.363 101.885)" fill="#abccf4"/>
          <rect id="Rectángulo_2683-3" data-name="Rectángulo 2683" width="7.031" height="0.548" transform="translate(6.363 103.768)" fill="#abccf4"/>
        </g>
      </g>
    </g>
  </g>
</svg>
