<svg xmlns="http://www.w3.org/2000/svg" width="280.902" height="340" viewBox="0 0 280.902 340">
  <g id="Checking_boxes-rafiki" data-name="Checking boxes-rafiki" transform="translate(-101.049 -106.04)">
    <g id="freepik--character-1--inject-33" transform="translate(101.049 106.04)">
      <g id="freepik--group--inject-33">
        <path id="Trazado_5443" data-name="Trazado 5443" d="M232.385,231.262l-21.591,1.924-8.658-4.887s-27.768-15.469-34.983-20.356c-2.186-1.5-4.231-4.755-5.991-8.582a86.433,86.433,0,0,1-3.8-10.09c-.492-1.541-.929-3.017-1.3-4.373-.831-2.919-1.345-5.105-1.487-5.7h0a.536.536,0,0,0,0-.142h.055l6.844-2.186,5.717-1.815s.262,1.356.711,3.422l.394,1.826c.12.525.241,1.093.372,1.662,1.443,6.363,3.662,15.043,5.269,16.464,2.591,2.285,35.169,24.488,36.327,25.067s11.533,0,11.533,0Z" transform="translate(-96.061 -99.607)" fill="#f3b5ac"/>
        <path id="Trazado_5444" data-name="Trazado 5444" d="M154.621,150.68c9.948-.153,16.278,30.676,16.278,30.676l-13.119,6.559a42,42,0,0,1-5.63-21.23C152.456,154.856,154.621,150.68,154.621,150.68Z" transform="translate(-96.286 -101.88)" fill="#086bb5"/>
        <path id="Trazado_5445" data-name="Trazado 5445" d="M154.621,150.68c9.948-.153,16.278,30.676,16.278,30.676l-13.119,6.559a42,42,0,0,1-5.63-21.23C152.456,154.856,154.621,150.68,154.621,150.68Z" transform="translate(-96.286 -101.88)" fill="#fff" opacity="0.5"/>
        <path id="Trazado_5446" data-name="Trazado 5446" d="M172.118,179.524l-3.542,2.3-4.624,3-6.647,4.3-1.192.776L154.67,185.5l1.334-.722.875-.481,6.078-3.312,4.854-2.657,2.427-1.323.426-.23Z" transform="translate(-96.051 -99.447)" fill="#086bb5"/>
        <path id="Trazado_5447" data-name="Trazado 5447" d="M164.555,190.73a14.124,14.124,0,0,1-3.433,9.314,86.42,86.42,0,0,1-3.8-10.09l-1.192.776-1.443-4.373,1.334-.722c-.831-2.919-1.345-5.105-1.487-5.7h0v-.175L156.1,167.74a58.574,58.574,0,0,1,5.269,9.839c.568,1.345,1.093,2.777,1.574,4.264q.251.765.459,1.574c.208.743.383,1.5.536,2.252a28.423,28.423,0,0,1,.612,5.062Z" transform="translate(-96.064 -100.289)" opacity="0.2"/>
        <path id="Trazado_5448" data-name="Trazado 5448" d="M153.05,411.042l9.15.973,1.716-19.732-9.15-.973Z" transform="translate(-96.202 -79.449)" fill="#f3b5ac"/>
        <path id="Trazado_5449" data-name="Trazado 5449" d="M111.3,410.5h8.855l.732-20.531h-8.866Z" transform="translate(-100.094 -79.574)" fill="#f3b5ac"/>
        <path id="Trazado_5450" data-name="Trazado 5450" d="M121.664,407.81H110.9a.787.787,0,0,0-.754.612l-1.749,7.893a1.3,1.3,0,0,0,1.006,1.552.853.853,0,0,0,.284,0c3.487,0,6.024-.262,10.4-.262,2.7,0,10.834.273,14.551.273s4.209-3.673,2.678-4.012c-6.833-1.487-12.025-3.553-14.212-5.466A2.186,2.186,0,0,0,121.664,407.81Z" transform="translate(-100.368 -77.911)" fill="#263238"/>
        <path id="Trazado_5451" data-name="Trazado 5451" d="M121.1,409.1a.219.219,0,0,1-.164-.186.2.2,0,0,1,.1-.2c.317-.208,3.181-1.968,4.165-1.454a.6.6,0,0,1,.361.579,1.257,1.257,0,0,1-.437,1.093,2.635,2.635,0,0,1-1.705.459,10.306,10.306,0,0,1-2.318-.3Zm.6-.3a4.275,4.275,0,0,0,3.159-.164.885.885,0,0,0,.284-.754c0-.164-.077-.241-.142-.241a.437.437,0,0,0-.262-.055,8.538,8.538,0,0,0-3.039,1.213Z" transform="translate(-99.196 -77.971)" fill="#086bb5"/>
        <path id="Trazado_5452" data-name="Trazado 5452" d="M121.008,409.339a.23.23,0,0,1-.1-.2c0-.12.23-2.667,1.257-3.5a1.093,1.093,0,0,1,.885-.273.689.689,0,0,1,.678.547c.175.94-1.6,2.886-2.5,3.389h-.1a.218.218,0,0,1-.12.033Zm1.421-3.455a5.051,5.051,0,0,0-1.093,2.777c.918-.689,2.044-2.186,1.935-2.744,0-.055,0-.208-.306-.208h-.1a.765.765,0,0,0-.4.153Z" transform="translate(-99.198 -78.14)" fill="#086bb5"/>
        <path id="Trazado_5453" data-name="Trazado 5453" d="M163.434,407.56H152.666a.776.776,0,0,0-.754.6l-1.749,7.893a1.312,1.312,0,0,0,1.006,1.552h.3c3.476-.066,6.013-.273,10.4-.273,2.689,0,10.823.284,14.54.284s4.209-3.684,2.689-4.023c-6.833-1.487-12.025-3.542-14.212-5.466A2.187,2.187,0,0,0,163.434,407.56Z" transform="translate(-96.474 -77.935)" fill="#263238"/>
        <path id="Trazado_5454" data-name="Trazado 5454" d="M162.874,408.845a.219.219,0,0,1-.164-.186.186.186,0,0,1,.109-.2c.317-.208,3.181-1.968,4.154-1.454a.623.623,0,0,1,.361.579,1.246,1.246,0,0,1-.437,1.093,2.7,2.7,0,0,1-1.684.514,10.4,10.4,0,0,1-2.339-.35Zm.6-.3a4.373,4.373,0,0,0,3.159-.153.875.875,0,0,0,.284-.754c0-.175-.077-.251-.131-.251a.47.47,0,0,0-.273-.055A8.746,8.746,0,0,0,163.475,408.549Z" transform="translate(-95.302 -77.995)" fill="#086bb5"/>
        <path id="Trazado_5455" data-name="Trazado 5455" d="M162.819,409.059a.23.23,0,0,1-.109-.186c0-.131.23-2.678,1.257-3.509a1.093,1.093,0,0,1,.885-.273.689.689,0,0,1,.678.558c.186.929-1.585,2.886-2.5,3.378h-.1a.207.207,0,0,1-.109.033Zm1.421-3.455a4.963,4.963,0,0,0-1.093,2.777c.907-.689,2.033-2.186,1.924-2.733,0-.066,0-.219-.306-.219h-.1a.732.732,0,0,0-.426.175Z" transform="translate(-95.302 -78.166)" fill="#086bb5"/>
        <path id="Trazado_5456" data-name="Trazado 5456" d="M154.7,391.31l9.15.973-.9,10.178-9.15-.973Z" transform="translate(-96.132 -79.449)" opacity="0.2"/>
        <path id="Trazado_5457" data-name="Trazado 5457" d="M111.993,389.98h8.866l-.383,10.593H111.61Z" transform="translate(-100.065 -79.573)" opacity="0.2"/>
        <path id="Trazado_5458" data-name="Trazado 5458" d="M115.923,225.22h47.008c4.471,24.433,18.475,110.874,8.429,187.891l-15.928-1.979s1.476-102.248-12.583-140.041c-1.618,20.224-3.542,41.75-5.2,53.207-4.056,28.183-12.812,89.808-12.812,89.808H108.62s3.28-58.968,4.843-86.681C115.136,297.339,115.868,231.4,115.923,225.22Z" transform="translate(-100.344 -94.931)" fill="#086bb5"/>
        <path id="Trazado_5459" data-name="Trazado 5459" d="M140,268.607a125.859,125.859,0,0,1,5.258,20.356c1.312-18.005-3.947-37.093-3.947-37.093Z" transform="translate(-97.419 -92.447)" opacity="0.2"/>
        <path id="Trazado_5460" data-name="Trazado 5460" d="M169.4,401.195l-19.711-2.93.6-5.455,20.5,2.689Z" transform="translate(-96.516 -79.31)" fill="#086bb5"/>
        <path id="Trazado_5461" data-name="Trazado 5461" d="M169.4,401.195l-19.711-2.93.6-5.455,20.5,2.689Z" transform="translate(-96.516 -79.31)" fill="#fff" opacity="0.6"/>
        <path id="Trazado_5462" data-name="Trazado 5462" d="M126.86,398.629H107.74v-5.717l19.842-.372Z" transform="translate(-100.426 -79.335)" fill="#086bb5"/>
        <path id="Trazado_5463" data-name="Trazado 5463" d="M126.86,398.629H107.74v-5.717l19.842-.372Z" transform="translate(-100.426 -79.335)" fill="#fff" opacity="0.6"/>
        <path id="Trazado_5464" data-name="Trazado 5464" d="M115.224,233.533l-.044-6.811,47.948-2.963.339,6.6Z" transform="translate(-99.732 -95.067)" fill="#263238"/>
        <rect id="Rectángulo_2740" data-name="Rectángulo 2740" width="2.165" height="9.981" transform="translate(25.461 129.928)" fill="#086bb5"/>
        <rect id="Rectángulo_2741" data-name="Rectángulo 2741" width="2.165" height="9.981" transform="translate(58.603 126.769) rotate(-4.17)" fill="#086bb5"/>
        <path id="Trazado_5465" data-name="Trazado 5465" d="M163.881,230.589l-47.9,3.542c0-4.2-.109-8.877-.426-13.818-.59-9.128-1.716-19.12-2.974-28.489-2.667-19.907-5.936-36.994-5.936-36.994,22.3-5.63,52.223-4.165,52.223-4.165C166.636,179.788,163.881,230.589,163.881,230.589Z" transform="translate(-100.528 -101.897)" fill="#086bb5"/>
        <path id="Trazado_5466" data-name="Trazado 5466" d="M163.881,230.589l-47.9,3.542c0-4.2-.109-8.877-.426-13.818-.59-9.128-1.716-19.12-2.974-28.489-2.667-19.907-5.936-36.994-5.936-36.994,22.3-5.63,52.223-4.165,52.223-4.165C166.636,179.788,163.881,230.589,163.881,230.589Z" transform="translate(-100.528 -101.897)" fill="#fff" opacity="0.6"/>
        <path id="Trazado_5467" data-name="Trazado 5467" d="M122.21,153.673c4.373,3.925,14.9,2.482,14.9,2.482s6.559-1.815,5.215-3.881c-3.892-.634-5.772-2.449-6.559-4.777a11.019,11.019,0,0,1-.394-4.438,21.126,21.126,0,0,1,.328-2.482l-13.119-9.686C124.342,137.285,126.441,149.037,122.21,153.673Z" transform="translate(-99.077 -103.724)" fill="#f3b5ac"/>
        <path id="Trazado_5468" data-name="Trazado 5468" d="M125.36,136.52c.514,7.849,6.964,10.014,10.123,10.451a11.02,11.02,0,0,1-.394-4.438Z" transform="translate(-98.783 -103.199)" opacity="0.2"/>
        <path id="Trazado_5469" data-name="Trazado 5469" d="M146.947,113.94c3.181,3.017,1.858,12.211-4.624,16.912s-6.483-18.038-6.483-18.038S144.925,112.016,146.947,113.94Z" transform="translate(-97.807 -105.424)" fill="#263238"/>
        <path id="Trazado_5470" data-name="Trazado 5470" d="M124.769,140.727a11.085,11.085,0,0,0,12.736,4.3,12.332,12.332,0,0,0,7.04-5.739,13,13,0,0,0,.59-1.17c3.192-7.423,4.176-20.541-3.684-25.417a12.025,12.025,0,0,0-16.562,3.783,12.168,12.168,0,0,0-1.8,5.291C122.124,130.472,121.14,135.567,124.769,140.727Z" transform="translate(-99.078 -105.591)" fill="#f3b5ac"/>
        <path id="Trazado_5471" data-name="Trazado 5471" d="M134.654,125.184c-.164.689.153,1.334.623,1.41s.929-.437,1.093-1.093-.164-1.334-.612-1.41S134.785,124.473,134.654,125.184Z" transform="translate(-97.921 -104.359)" fill="#263238"/>
        <path id="Trazado_5472" data-name="Trazado 5472" d="M141.944,126.424c-.164.689.164,1.345.612,1.421s.94-.437,1.093-1.093-.164-1.345-.623-1.421S142.064,125.757,141.944,126.424Z" transform="translate(-97.242 -104.243)" fill="#263238"/>
        <path id="Trazado_5473" data-name="Trazado 5473" d="M139.669,126.25a25.286,25.286,0,0,0,2.339,6.559,4.122,4.122,0,0,1-3.5.055Z" transform="translate(-97.558 -104.157)" fill="#ef9593"/>
        <path id="Trazado_5474" data-name="Trazado 5474" d="M132.812,122.5a.481.481,0,0,0,.437-.087,3.356,3.356,0,0,1,2.886-.94.415.415,0,0,0,.5-.306.426.426,0,0,0-.306-.5h0a4.2,4.2,0,0,0-3.662,1.093.426.426,0,0,0,0,.59h0a.536.536,0,0,0,.142.153Z" transform="translate(-98.113 -104.684)" fill="#263238"/>
        <path id="Trazado_5475" data-name="Trazado 5475" d="M137.337,135.771h0a6.4,6.4,0,0,1-5.215-2.842.221.221,0,0,1,.372-.24h0a6.155,6.155,0,0,0,4.854,2.613.219.219,0,0,1,.219.208h0a.219.219,0,0,1-.208.208Z" transform="translate(-98.156 -103.566)" fill="#263238"/>
        <path id="Trazado_5476" data-name="Trazado 5476" d="M145.72,124.631a.47.47,0,0,0,.24.066.437.437,0,0,0,.3-.514h0a4.132,4.132,0,0,0-2.58-2.831.415.415,0,0,0-.514.273h0a.426.426,0,0,0,.273.525h0a3.378,3.378,0,0,1,2.012,2.274.415.415,0,0,0,.273.208Z" transform="translate(-97.126 -104.615)" fill="#263238"/>
        <path id="Trazado_5477" data-name="Trazado 5477" d="M131.517,111.943v3.892a2.886,2.886,0,0,0-1.88,3.433c.842,3.389-1.6,8.177-4.318,9.839,0,0,.087-1.41-1.093-1.224s-1.782,7.521.1,11.271c0,0-3.1-3.564-4.132-11.457-.962-7.3-.459-13.228,1.323-15.786Z" transform="translate(-99.31 -105.493)" fill="#263238"/>
        <path id="Trazado_5478" data-name="Trazado 5478" d="M118.465,127.149a8.374,8.374,0,0,0,4,4.974c2.58,1.388,4.515-.776,4.373-3.542-.175-2.471-1.705-6.231-4.57-6.45S117.722,124.536,118.465,127.149Z" transform="translate(-99.442 -104.542)" fill="#f3b5ac"/>
        <path id="Trazado_5479" data-name="Trazado 5479" d="M119.793,119.115s-2.7-6.483,4.373-11.238,23.854.787,25.035,4.646S137.689,123.389,119.793,119.115Z" transform="translate(-99.35 -106.04)" fill="#263238"/>
        <path id="Trazado_5480" data-name="Trazado 5480" d="M124.134,148.223l10.7,5.86,1.465-8,7.5,4.876v10.222l-7.937-4.734-5.575,8.352L119.28,152.7Z" transform="translate(-99.35 -102.308)" fill="#086bb5"/>
        <rect id="Rectángulo_2742" data-name="Rectángulo 2742" width="10.976" height="8.243" rx="1.16" transform="matrix(0.998, -0.055, 0.055, 0.998, 39.4, 129.507)" fill="#fff"/>
        <path id="Trazado_5481" data-name="Trazado 5481" d="M124.134,148.223l10.7,5.86,1.465-8,7.5,4.876v10.222l-7.937-4.734-5.575,8.352L119.28,152.7Z" transform="translate(-99.35 -102.308)" fill="#fff" opacity="0.5"/>
        <path id="Trazado_5482" data-name="Trazado 5482" d="M132.229,214.709c-3.181,4.788-13.359,4.755-17.185,2.11-.59-9.128-1.716-19.12-2.974-28.489Z" transform="translate(-100.022 -98.37)" opacity="0.2"/>
        <path id="Trazado_5483" data-name="Trazado 5483" d="M116.252,178.74s2.263,14.737,4.482,17.612,48.1,27.964,48.1,27.964l15.863-1.148,7.292,8.363s-21.132,3.28-23.439,2.646a22.247,22.247,0,0,1-4.078-1.574s-48.1-18.945-52.146-23.275-8.647-26.554-8.647-26.554Z" transform="translate(-100.804 -99.264)" fill="#f3b5ac"/>
        <path id="Trazado_5484" data-name="Trazado 5484" d="M107.161,154.5c8.4-1.749,12.736,33.092,12.736,33.092l-17.174,4.373S96.83,156.66,107.161,154.5Z" transform="translate(-101.049 -101.53)" fill="#086bb5"/>
        <path id="Trazado_5485" data-name="Trazado 5485" d="M107.161,154.5c8.4-1.749,12.736,33.092,12.736,33.092l-17.174,4.373S96.83,156.66,107.161,154.5Z" transform="translate(-101.049 -101.53)" fill="#fff" opacity="0.5"/>
        <path id="Trazado_5486" data-name="Trazado 5486" d="M101.66,188.393l19.262-4.613v3.312l-18.4,5.335Z" transform="translate(-100.993 -98.794)" fill="#086bb5"/>
      </g>
    </g>
    <g id="freepik--Boxes--inject-33" transform="translate(156.749 197.695)">
      <path id="Trazado_5487" data-name="Trazado 5487" d="M162.932,401.964V252.106a31.708,31.708,0,0,0-5.7-18.142L152,226.47h93.033l5.236,7.5a31.7,31.7,0,0,1,5.7,18.136V400.542" transform="translate(-152 -186.469)" fill="none" stroke="#263238" stroke-linecap="round" stroke-linejoin="round" stroke-width="6"/>
      <circle id="Elipse_175" data-name="Elipse 175" cx="9.631" cy="9.631" r="9.631" transform="translate(199.009 229.083)" fill="#263238"/>
      <path id="Trazado_5488" data-name="Trazado 5488" d="M348.082,408.652a4.81,4.81,0,1,0-1.413,3.405A4.821,4.821,0,0,0,348.082,408.652Z" transform="translate(-134.621 -169.938)" fill="#fff" opacity="0.4"/>
      <path id="Trazado_5489" data-name="Trazado 5489" d="M342.567,411.731h0a3.673,3.673,0,0,1-3.444-2.405L333.45,393.78h12.78v14.288a3.662,3.662,0,0,1-3.662,3.662Z" transform="translate(-135.086 -170.874)" fill="#263238"/>
      <path id="Trazado_5490" data-name="Trazado 5490" d="M342.567,411.731h0a3.673,3.673,0,0,1-3.444-2.405L333.45,393.78h12.78v14.288a3.662,3.662,0,0,1-3.662,3.662Z" transform="translate(-135.086 -170.874)" fill="#fff" opacity="0.2"/>
      <circle id="Elipse_176" data-name="Elipse 176" cx="9.631" cy="9.631" r="9.631" transform="translate(91.874 229.083)" fill="#263238"/>
      <path id="Trazado_5491" data-name="Trazado 5491" d="M250.082,408.652a4.81,4.81,0,1,0-1.413,3.405A4.821,4.821,0,0,0,250.082,408.652Z" transform="translate(-143.756 -169.938)" fill="#fff" opacity="0.4"/>
      <path id="Trazado_5492" data-name="Trazado 5492" d="M244.567,411.731h0a3.673,3.673,0,0,1-3.444-2.405L235.45,393.78h12.78v14.288A3.662,3.662,0,0,1,244.567,411.731Z" transform="translate(-144.221 -170.874)" fill="#263238"/>
      <path id="Trazado_5493" data-name="Trazado 5493" d="M244.567,411.731h0a3.673,3.673,0,0,1-3.444-2.405L235.45,393.78h12.78v14.288A3.662,3.662,0,0,1,244.567,411.731Z" transform="translate(-144.221 -170.874)" fill="#fff" opacity="0.2"/>
      <path id="Trazado_5494" data-name="Trazado 5494" d="M376.88,383.53v9.1a3.072,3.072,0,0,1-3.072,3.072H158.522a3.072,3.072,0,0,1-3.072-3.072v-9.1Z" transform="translate(-151.678 -171.829)" fill="#263238"/>
      <path id="Trazado_5495" data-name="Trazado 5495" d="M376.88,383.53v9.1a3.072,3.072,0,0,1-3.072,3.072H158.522a3.072,3.072,0,0,1-3.072-3.072v-9.1Z" transform="translate(-151.678 -171.829)" fill="#fff" opacity="0.4"/>
      <path id="Trazado_5496" data-name="Trazado 5496" d="M300.355,383.53v9.1a3.072,3.072,0,0,1-3.072,3.072H158.522a3.072,3.072,0,0,1-3.072-3.072v-9.1Z" transform="translate(-151.678 -171.829)" fill="#fff" opacity="0.2"/>
      <circle id="Elipse_177" data-name="Elipse 177" cx="9.631" cy="9.631" r="9.631" transform="translate(121.39 229.083)" fill="#263238"/>
      <path id="Trazado_5497" data-name="Trazado 5497" d="M277.082,408.652a4.81,4.81,0,1,0-1.413,3.405A4.821,4.821,0,0,0,277.082,408.652Z" transform="translate(-141.239 -169.938)" fill="#fff" opacity="0.6"/>
      <path id="Trazado_5498" data-name="Trazado 5498" d="M271.567,411.731h0a3.673,3.673,0,0,1-3.444-2.405L262.45,393.78h12.78v14.288A3.662,3.662,0,0,1,271.567,411.731Z" transform="translate(-141.704 -170.874)" fill="#263238"/>
      <path id="Trazado_5499" data-name="Trazado 5499" d="M271.567,411.731h0a3.673,3.673,0,0,1-3.444-2.405L262.45,393.78h12.78v14.288A3.662,3.662,0,0,1,271.567,411.731Z" transform="translate(-141.704 -170.874)" fill="#fff" opacity="0.4"/>
      <circle id="Elipse_178" data-name="Elipse 178" cx="9.631" cy="9.631" r="9.631" transform="translate(14.256 229.083)" fill="#263238"/>
      <path id="Trazado_5500" data-name="Trazado 5500" d="M179.082,408.652a4.81,4.81,0,1,0-1.413,3.405,4.821,4.821,0,0,0,1.413-3.405Z" transform="translate(-150.374 -169.938)" fill="#fff" opacity="0.6"/>
      <path id="Trazado_5501" data-name="Trazado 5501" d="M173.567,411.731h0a3.673,3.673,0,0,1-3.444-2.405L164.45,393.78h12.78v14.288A3.662,3.662,0,0,1,173.567,411.731Z" transform="translate(-150.839 -170.874)" fill="#263238"/>
      <path id="Trazado_5502" data-name="Trazado 5502" d="M173.567,411.731h0a3.673,3.673,0,0,1-3.444-2.405L164.45,393.78h12.78v14.288A3.662,3.662,0,0,1,173.567,411.731Z" transform="translate(-150.839 -170.874)" fill="#fff" opacity="0.4"/>
      <rect id="Rectángulo_2743" data-name="Rectángulo 2743" width="101.942" height="70.567" transform="translate(30.435 141.134)" fill="#086bb5"/>
      <rect id="Rectángulo_2744" data-name="Rectángulo 2744" width="101.942" height="70.567" transform="translate(30.435 141.134)" fill="#fff" opacity="0.4"/>
      <rect id="Rectángulo_2745" data-name="Rectángulo 2745" width="47.303" height="70.567" transform="translate(30.435 141.134)" fill="#fff" opacity="0.2"/>
      <rect id="Rectángulo_2746" data-name="Rectángulo 2746" width="7.926" height="10.09" rx="0.92" transform="translate(66.347 196.779)" opacity="0.2"/>
      <rect id="Rectángulo_2747" data-name="Rectángulo 2747" width="7.926" height="10.09" rx="0.92" transform="translate(55.677 196.779)" opacity="0.2"/>
      <rect id="Rectángulo_2748" data-name="Rectángulo 2748" width="5.761" height="7.357" transform="translate(104.697 141.134)" opacity="0.4"/>
      <rect id="Rectángulo_2749" data-name="Rectángulo 2749" width="39.684" height="9.227" transform="translate(86.528 171.263)" opacity="0.2"/>
      <rect id="Rectángulo_2750" data-name="Rectángulo 2750" width="13.567" height="13.567" transform="translate(33.518 144.807)" opacity="0.2"/>
      <rect id="Rectángulo_2751" data-name="Rectángulo 2751" width="101.942" height="70.567" transform="translate(40.842 70.567)" fill="#086bb5"/>
      <rect id="Rectángulo_2752" data-name="Rectángulo 2752" width="101.942" height="70.567" transform="translate(40.842 70.567)" opacity="0.4"/>
      <rect id="Rectángulo_2753" data-name="Rectángulo 2753" width="47.303" height="70.567" transform="translate(40.842 70.567)" fill="#fff" opacity="0.2"/>
      <rect id="Rectángulo_2754" data-name="Rectángulo 2754" width="7.926" height="10.09" rx="0.92" transform="translate(76.765 126.212)" opacity="0.2"/>
      <rect id="Rectángulo_2755" data-name="Rectángulo 2755" width="7.926" height="10.09" rx="0.92" transform="translate(66.096 126.212)" opacity="0.2"/>
      <rect id="Rectángulo_2756" data-name="Rectángulo 2756" width="5.761" height="7.357" transform="translate(115.105 70.567)" opacity="0.4"/>
      <rect id="Rectángulo_2757" data-name="Rectángulo 2757" width="39.684" height="9.227" transform="translate(96.935 100.696)" opacity="0.2"/>
      <rect id="Rectángulo_2758" data-name="Rectángulo 2758" width="13.567" height="13.567" transform="translate(43.936 74.24)" opacity="0.2"/>
      <rect id="Rectángulo_2759" data-name="Rectángulo 2759" width="101.942" height="70.567" transform="translate(103.243 70.567)" fill="#086bb5"/>
      <rect id="Rectángulo_2760" data-name="Rectángulo 2760" width="101.942" height="70.567" transform="translate(103.243 70.567)" fill="#fff" opacity="0.4"/>
      <rect id="Rectángulo_2761" data-name="Rectángulo 2761" width="47.303" height="70.567" transform="translate(103.243 70.567)" fill="#fff" opacity="0.2"/>
      <rect id="Rectángulo_2762" data-name="Rectángulo 2762" width="7.926" height="10.09" rx="0.92" transform="translate(139.166 126.212)" opacity="0.2"/>
      <rect id="Rectángulo_2763" data-name="Rectángulo 2763" width="7.926" height="10.09" rx="0.92" transform="translate(128.496 126.212)" opacity="0.2"/>
      <rect id="Rectángulo_2764" data-name="Rectángulo 2764" width="5.761" height="7.357" transform="translate(177.505 70.567)" opacity="0.4"/>
      <rect id="Rectángulo_2765" data-name="Rectángulo 2765" width="39.684" height="9.227" transform="translate(159.336 100.696)" opacity="0.2"/>
      <rect id="Rectángulo_2766" data-name="Rectángulo 2766" width="13.567" height="13.567" transform="translate(106.337 74.24)" opacity="0.2"/>
      <rect id="Rectángulo_2767" data-name="Rectángulo 2767" width="101.942" height="70.567" transform="translate(67.987)" fill="#086bb5"/>
      <rect id="Rectángulo_2768" data-name="Rectángulo 2768" width="47.303" height="70.567" transform="translate(67.987)" fill="#fff" opacity="0.2"/>
      <rect id="Rectángulo_2769" data-name="Rectángulo 2769" width="7.926" height="10.09" rx="0.92" transform="translate(103.899 55.645)" opacity="0.2"/>
      <rect id="Rectángulo_2770" data-name="Rectángulo 2770" width="7.926" height="10.09" rx="0.92" transform="translate(93.24 55.645)" opacity="0.2"/>
      <rect id="Rectángulo_2771" data-name="Rectángulo 2771" width="5.761" height="7.357" transform="translate(142.249)" opacity="0.4"/>
      <rect id="Rectángulo_2772" data-name="Rectángulo 2772" width="39.684" height="9.227" transform="translate(124.08 30.129)" opacity="0.2"/>
      <rect id="Rectángulo_2773" data-name="Rectángulo 2773" width="13.567" height="13.567" transform="translate(71.07 3.673)" opacity="0.2"/>
      <rect id="Rectángulo_2774" data-name="Rectángulo 2774" width="101.942" height="70.567" transform="translate(95.306 141.134)" fill="#263238"/>
      <rect id="Rectángulo_2775" data-name="Rectángulo 2775" width="101.942" height="70.567" transform="translate(95.306 141.134)" fill="#fff" opacity="0.2"/>
      <rect id="Rectángulo_2776" data-name="Rectángulo 2776" width="47.303" height="70.567" transform="translate(95.306 141.134)" fill="#fff" opacity="0.2"/>
      <rect id="Rectángulo_2777" data-name="Rectángulo 2777" width="7.926" height="10.09" rx="0.92" transform="translate(131.218 196.779)" opacity="0.2"/>
      <rect id="Rectángulo_2778" data-name="Rectángulo 2778" width="7.926" height="10.09" rx="0.92" transform="translate(120.549 196.779)" opacity="0.2"/>
      <rect id="Rectángulo_2779" data-name="Rectángulo 2779" width="5.761" height="7.357" transform="translate(169.568 141.134)" opacity="0.4"/>
      <rect id="Rectángulo_2780" data-name="Rectángulo 2780" width="39.684" height="9.227" transform="translate(151.399 171.263)" opacity="0.2"/>
      <rect id="Rectángulo_2781" data-name="Rectángulo 2781" width="13.567" height="13.567" transform="translate(98.389 144.807)" opacity="0.2"/>
    </g>
  </g>
</svg>
